<svg width="30" height="22" viewBox="0 0 30 22" fill="none" xmlns="http://www.w3.org/2000/svg">
<path d="M14.2031 7.20312C14.7344 6.76563 15.25 6.76563 15.75 7.20312L19.5 10.9531C19.9688 11.4844 19.9688 12 19.5 12.5C19 12.9688 18.4844 12.9688 17.9531 12.5L16.125 10.7188V17C16.0625 17.6875 15.6875 18.0625 15 18.125C14.3125 18.0625 13.9375 17.6875 13.875 17V10.7188L12 12.5C11.5 12.9688 10.9844 12.9688 10.4531 12.5C10.0156 12 10.0156 11.4844 10.4531 10.9531L14.2031 7.20312ZM6.75 21.5C4.84375 21.4375 3.25 20.7812 1.96875 19.5312C0.71875 18.25 0.0625 16.6562 0 14.75C0.03125 13.25 0.453125 11.9375 1.26562 10.8125C2.07812 9.65625 3.15625 8.84375 4.5 8.375C4.5625 6.15625 5.32812 4.29688 6.79688 2.79688C8.29688 1.32813 10.1562 0.5625 12.375 0.5C13.5625 0.5 14.6719 0.75 15.7031 1.25C16.7344 1.71875 17.6094 2.375 18.3281 3.21875C19.0469 2.90625 19.8125 2.75 20.625 2.75C22.2188 2.78125 23.5469 3.32812 24.6094 4.39062C25.6719 5.45313 26.2188 6.78125 26.25 8.375C26.25 8.6875 26.2344 8.98438 26.2031 9.26562C27.3281 9.79688 28.2344 10.5781 28.9219 11.6094C29.6094 12.6406 29.9688 13.8125 30 15.125C29.9688 16.875 29.3906 18.3281 28.2656 19.4844C27.1406 20.6719 25.7188 21.3438 24 21.5H6.75ZM12.375 2.75C10.7812 2.78125 9.45312 3.32812 8.39062 4.39062C7.32812 5.45313 6.78125 6.78125 6.75 8.375V9.96875L5.20312 10.5312C4.32812 10.8438 3.625 11.375 3.09375 12.125C2.5625 12.875 2.28125 13.75 2.25 14.75C2.28125 16.0312 2.71875 17.0938 3.5625 17.9375C4.40625 18.7812 5.46875 19.2188 6.75 19.25H23.7656H23.8594C24.9844 19.1562 25.9062 18.7188 26.625 17.9375C27.3438 17.1875 27.7188 16.25 27.75 15.125C27.75 14.2812 27.5156 13.5156 27.0469 12.8281C26.6094 12.1719 26.0156 11.6719 25.2656 11.3281L23.6719 10.625L23.9531 8.9375C23.9844 8.75 24 8.5625 24 8.375C23.9688 7.40625 23.6406 6.60937 23.0156 5.98438C22.3906 5.35938 21.5938 5.03125 20.625 5C20.125 5 19.6719 5.09375 19.2656 5.28125L17.7188 5.98438L16.6406 4.71875C15.5469 3.46875 14.1094 2.8125 12.3281 2.75H12.375Z" fill="#A58844"/>
</svg>
