<svg width="18" height="14" viewBox="0 0 18 14" fill="none" xmlns="http://www.w3.org/2000/svg">
<path d="M15.75 0H2.25C1.61719 0.0234375 1.08984 0.246094 0.667969 0.667969C0.246094 1.08984 0.0234375 1.61719 0 2.25V11.25C0.0234375 11.8828 0.246094 12.4102 0.667969 12.832C1.08984 13.2539 1.61719 13.4766 2.25 13.5H15.75C16.3828 13.4766 16.9102 13.2539 17.332 12.832C17.7539 12.4102 17.9766 11.8828 18 11.25V2.25C17.9766 1.61719 17.7539 1.08984 17.332 0.667969C16.9102 0.246094 16.3828 0.0234375 15.75 0ZM2.25 1.6875H15.75C16.1016 1.71094 16.2891 1.89844 16.3125 2.25V3.02344L10.4414 7.875C10.0195 8.22656 9.53906 8.40234 9 8.40234C8.46094 8.40234 7.98047 8.22656 7.55859 7.875L1.6875 3.02344V2.25C1.71094 1.89844 1.89844 1.71094 2.25 1.6875ZM15.75 11.8125H2.25C1.89844 11.7891 1.71094 11.6016 1.6875 11.25V5.23828L6.46875 9.21094C7.21875 9.82031 8.0625 10.125 9 10.125C9.9375 10.125 10.7812 9.82031 11.5312 9.21094L16.3125 5.23828V11.25C16.2891 11.6016 16.1016 11.7891 15.75 11.8125Z" fill="#3C3950"/>
</svg>
