<svg width="16" height="17" viewBox="0 0 16 17" fill="none" xmlns="http://www.w3.org/2000/svg">
<path d="M8 4.70703C5.75 4.70703 3.95703 6.53516 3.95703 8.75C3.95703 11 5.75 12.793 8 12.793C10.2148 12.793 12.043 11 12.043 8.75C12.043 6.53516 10.2148 4.70703 8 4.70703ZM8 11.3867C6.55859 11.3867 5.36328 10.2266 5.36328 8.75C5.36328 7.30859 6.52344 6.14844 8 6.14844C9.44141 6.14844 10.6016 7.30859 10.6016 8.75C10.6016 10.2266 9.44141 11.3867 8 11.3867ZM13.1328 4.56641C13.1328 5.09375 12.7109 5.51562 12.1836 5.51562C11.6562 5.51562 11.2344 5.09375 11.2344 4.56641C11.2344 4.03906 11.6562 3.61719 12.1836 3.61719C12.7109 3.61719 13.1328 4.03906 13.1328 4.56641ZM15.8047 5.51562C15.7344 4.25 15.4531 3.125 14.5391 2.21094C13.625 1.29688 12.5 1.01562 11.2344 0.945312C9.93359 0.875 6.03125 0.875 4.73047 0.945312C3.46484 1.01562 2.375 1.29688 1.42578 2.21094C0.511719 3.125 0.230469 4.25 0.160156 5.51562C0.0898438 6.81641 0.0898438 10.7188 0.160156 12.0195C0.230469 13.2852 0.511719 14.375 1.42578 15.3242C2.375 16.2383 3.46484 16.5195 4.73047 16.5898C6.03125 16.6602 9.93359 16.6602 11.2344 16.5898C12.5 16.5195 13.625 16.2383 14.5391 15.3242C15.4531 14.375 15.7344 13.2852 15.8047 12.0195C15.875 10.7188 15.875 6.81641 15.8047 5.51562ZM14.1172 13.3906C13.8711 14.0938 13.3086 14.6211 12.6406 14.9023C11.5859 15.3242 9.125 15.2188 8 15.2188C6.83984 15.2188 4.37891 15.3242 3.35938 14.9023C2.65625 14.6211 2.12891 14.0938 1.84766 13.3906C1.42578 12.3711 1.53125 9.91016 1.53125 8.75C1.53125 7.625 1.42578 5.16406 1.84766 4.10938C2.12891 3.44141 2.65625 2.91406 3.35938 2.63281C4.37891 2.21094 6.83984 2.31641 8 2.31641C9.125 2.31641 11.5859 2.21094 12.6406 2.63281C13.3086 2.87891 13.8359 3.44141 14.1172 4.10938C14.5391 5.16406 14.4336 7.625 14.4336 8.75C14.4336 9.91016 14.5391 12.3711 14.1172 13.3906Z" fill="#3C3950"/>
</svg>
