<svg width="18" height="19" viewBox="0 0 18 19" fill="none" xmlns="http://www.w3.org/2000/svg">
<path d="M8.57812 12.2031C8.36719 12.3906 8.13281 12.4844 7.875 12.4844C7.61719 12.4844 7.38281 12.3906 7.17188 12.2031L4.92188 9.95312C4.73438 9.74219 4.64062 9.50781 4.64062 9.25C4.64062 8.99219 4.73438 8.75781 4.92188 8.54688C5.13281 8.35938 5.36719 8.26562 5.625 8.26562C5.88281 8.26562 6.11719 8.35938 6.32812 8.54688L7.875 10.0938L11.6719 6.29688C11.8828 6.10938 12.1172 6.01562 12.375 6.01562C12.6328 6.01562 12.8672 6.10938 13.0781 6.29688C13.2656 6.50781 13.3594 6.74219 13.3594 7C13.3594 7.25781 13.2656 7.49219 13.0781 7.70312L8.57812 12.2031ZM18 9.25C17.9766 10.9375 17.5664 12.4492 16.7695 13.7852C15.9727 15.1445 14.8945 16.2227 13.5352 17.0195C12.1992 17.8164 10.6875 18.2266 9 18.25C7.3125 18.2266 5.80078 17.8164 4.46484 17.0195C3.10547 16.2227 2.02734 15.1445 1.23047 13.7852C0.433594 12.4492 0.0234375 10.9375 0 9.25C0.0234375 7.5625 0.433594 6.05078 1.23047 4.71484C2.02734 3.35547 3.10547 2.27734 4.46484 1.48047C5.80078 0.683594 7.3125 0.273438 9 0.25C10.6875 0.273438 12.1992 0.683594 13.5352 1.48047C14.8945 2.27734 15.9727 3.35547 16.7695 4.71484C17.5664 6.05078 17.9766 7.5625 18 9.25ZM9 1.9375C6.9375 1.98437 5.21484 2.69922 3.83203 4.08203C2.44922 5.46484 1.73438 7.1875 1.6875 9.25C1.73438 11.3125 2.44922 13.0352 3.83203 14.418C5.21484 15.8008 6.9375 16.5156 9 16.5625C11.0625 16.5156 12.7852 15.8008 14.168 14.418C15.5508 13.0352 16.2656 11.3125 16.3125 9.25C16.2656 7.1875 15.5508 5.46484 14.168 4.08203C12.7852 2.69922 11.0625 1.98437 9 1.9375Z" fill="#A58844"/>
</svg>
