<svg width="14" height="19" viewBox="0 0 14 19" fill="none" xmlns="http://www.w3.org/2000/svg">
<path d="M9.8125 7C9.78906 7.79688 9.51953 8.46484 9.00391 9.00391C8.46484 9.51953 7.79688 9.78906 7 9.8125C6.20312 9.78906 5.53516 9.51953 4.99609 9.00391C4.48047 8.46484 4.21094 7.79688 4.1875 7C4.21094 6.20312 4.48047 5.53516 4.99609 4.99609C5.53516 4.48047 6.20312 4.21094 7 4.1875C7.79688 4.21094 8.46484 4.48047 9.00391 4.99609C9.51953 5.53516 9.78906 6.20312 9.8125 7ZM7 5.875C6.67188 5.875 6.40234 5.98047 6.19141 6.19141C5.98047 6.40234 5.875 6.67188 5.875 7C5.875 7.32812 5.98047 7.59766 6.19141 7.80859C6.40234 8.01953 6.67188 8.125 7 8.125C7.32812 8.125 7.59766 8.01953 7.80859 7.80859C8.01953 7.59766 8.125 7.32812 8.125 7C8.125 6.67188 8.01953 6.40234 7.80859 6.19141C7.59766 5.98047 7.32812 5.875 7 5.875ZM13.75 7C13.7031 8.05469 13.3281 9.27344 12.625 10.6562C11.8984 12.0391 11.0781 13.375 10.1641 14.6641C9.25 15.9766 8.47656 17.0195 7.84375 17.793C7.60938 18.0742 7.32812 18.2148 7 18.2148C6.67188 18.2148 6.39062 18.0742 6.15625 17.793C5.52344 17.0195 4.73828 15.9766 3.80078 14.6641C2.88672 13.375 2.07812 12.0391 1.375 10.6562C0.671875 9.27344 0.296875 8.05469 0.25 7C0.296875 5.07812 0.953125 3.48438 2.21875 2.21875C3.48438 0.953125 5.07812 0.296875 7 0.25C8.92188 0.296875 10.5156 0.953125 11.7812 2.21875C13.0469 3.48438 13.7031 5.07812 13.75 7ZM7 1.9375C5.57031 1.98437 4.375 2.47656 3.41406 3.41406C2.47656 4.375 1.98438 5.57031 1.9375 7C1.9375 7.44531 2.11328 8.11328 2.46484 9.00391C2.86328 9.89453 3.36719 10.832 3.97656 11.8164C4.46875 12.6367 4.98438 13.4102 5.52344 14.1367C6.0625 14.8867 6.55469 15.5547 7 16.1406C7.44531 15.5547 7.9375 14.8984 8.47656 14.1719C9.01562 13.4219 9.53125 12.6367 10.0234 11.8164C10.6328 10.832 11.1367 9.89453 11.5352 9.00391C11.8867 8.11328 12.0625 7.44531 12.0625 7C12.0156 5.57031 11.5234 4.375 10.5859 3.41406C9.625 2.47656 8.42969 1.98437 7 1.9375Z" fill="#E3000B"/>
</svg>
