<svg width="16" height="16" viewBox="0 0 16 16" fill="none" xmlns="http://www.w3.org/2000/svg">
<path d="M7.625 10.625C7.4375 10.7917 7.22917 10.875 7 10.875C6.77083 10.875 6.5625 10.7917 6.375 10.625L4.375 8.625C4.20833 8.4375 4.125 8.22917 4.125 8C4.125 7.77083 4.20833 7.5625 4.375 7.375C4.5625 7.20833 4.77083 7.125 5 7.125C5.22917 7.125 5.4375 7.20833 5.625 7.375L7 8.75L10.375 5.375C10.5625 5.20833 10.7708 5.125 11 5.125C11.2292 5.125 11.4375 5.20833 11.625 5.375C11.7917 5.5625 11.875 5.77083 11.875 6C11.875 6.22917 11.7917 6.4375 11.625 6.625L7.625 10.625ZM16 8C15.9792 9.5 15.6146 10.8438 14.9062 12.0312C14.1979 13.2396 13.2396 14.1979 12.0312 14.9062C10.8438 15.6146 9.5 15.9792 8 16C6.5 15.9792 5.15625 15.6146 3.96875 14.9062C2.76042 14.1979 1.80208 13.2396 1.09375 12.0312C0.385417 10.8438 0.0208333 9.5 0 8C0.0208333 6.5 0.385417 5.15625 1.09375 3.96875C1.80208 2.76042 2.76042 1.80208 3.96875 1.09375C5.15625 0.385417 6.5 0.0208333 8 0C9.5 0.0208333 10.8438 0.385417 12.0312 1.09375C13.2396 1.80208 14.1979 2.76042 14.9062 3.96875C15.6146 5.15625 15.9792 6.5 16 8ZM8 1.5C6.16667 1.54167 4.63542 2.17708 3.40625 3.40625C2.17708 4.63542 1.54167 6.16667 1.5 8C1.54167 9.83333 2.17708 11.3646 3.40625 12.5938C4.63542 13.8229 6.16667 14.4583 8 14.5C9.83333 14.4583 11.3646 13.8229 12.5938 12.5938C13.8229 11.3646 14.4583 9.83333 14.5 8C14.4583 6.16667 13.8229 4.63542 12.5938 3.40625C11.3646 2.17708 9.83333 1.54167 8 1.5Z" fill="#A58844"/>
</svg>
