<svg width="121" height="253" viewBox="0 0 121 253" fill="none" xmlns="http://www.w3.org/2000/svg">
<path d="M99.4867 19.7808C100.555 20.6697 102.015 21.2064 103.868 21.391C105.721 21.5755 107.548 21.4377 109.349 20.9775C111.176 20.5402 112.559 19.8342 113.5 18.8597C114.712 17.4902 114.467 15.9791 112.768 14.3265C111.774 13.5063 110.779 12.9138 109.781 12.549C108.903 12.2031 108.117 11.7335 107.42 11.1402C106.745 10.4742 106.209 9.70632 105.813 8.8367C105.341 7.89839 104.667 6.98071 103.79 6.08366C102.943 5.30517 102.11 4.88543 101.293 4.82445C100.498 4.73852 99.7921 5.03221 99.1739 5.7055C98.3079 6.74877 97.7348 8.19885 97.4546 10.0557C97.1495 11.8897 97.1677 13.7219 97.5093 15.5523C97.8509 17.3827 98.5101 18.7922 99.4867 19.7808ZM104.539 25.3158C104.168 26.1702 104.072 27.001 104.25 27.808C104.428 28.6151 104.85 29.232 105.515 29.6589C106.201 30.013 106.92 30.0302 107.673 29.7106C108.379 29.393 108.953 28.8174 109.397 27.9838C109.768 27.1294 109.864 26.2987 109.686 25.4916C109.53 24.6596 109.109 24.0427 108.421 23.6407C107.735 23.2866 107.015 23.2694 106.262 23.589C105.557 23.9066 104.982 24.4822 104.539 25.3158ZM100.672 23.1446C99.9386 22.7925 99.1379 22.8386 98.2703 23.283C97.4256 23.7024 96.7263 24.439 96.1722 25.4929C95.666 26.5448 95.4811 27.547 95.6176 28.4996C95.7291 29.4293 96.1414 30.1066 96.8543 30.5314C97.6131 30.9064 98.4148 30.8842 99.2595 30.4648C100.127 30.0205 100.838 29.2713 101.392 28.2174C101.898 27.1655 102.083 26.1633 101.947 25.2107C101.835 24.281 101.41 23.5923 100.672 23.1446ZM89.1312 14.6158C89.6132 15.2421 90.2638 15.6097 91.0831 15.7185C91.9024 15.8274 92.7219 15.6606 93.5416 15.2183C94.3344 14.7053 94.859 14.0839 95.1154 13.3542C95.3697 12.5766 95.2913 11.8612 94.8801 11.2078C94.3981 10.5814 93.7475 10.2138 92.9282 10.105C92.1089 9.99621 91.2894 10.1629 90.4697 10.6052C89.6769 11.1182 89.1648 11.7511 88.9333 12.5037C88.6789 13.2813 88.7449 13.9853 89.1312 14.6158ZM95.9968 18.8514C95.5377 18.2001 94.8278 17.847 93.867 17.7922C92.9063 17.7373 91.9234 18.0069 90.9185 18.6008C89.9156 19.2426 89.2411 20.0021 88.8952 20.8795C88.5263 21.7817 88.561 22.5949 88.9992 23.319C89.4583 23.9703 90.1682 24.3234 91.1289 24.3782C92.0897 24.4331 93.0726 24.1636 94.0775 23.5696C95.0804 22.9278 95.7549 22.1683 96.1008 21.2909C96.4697 20.3887 96.435 19.5755 95.9968 18.8514Z" fill="#ffffff"/>
<path d="M101.052 69.4049C102.12 70.2938 103.581 70.8305 105.433 71.015C107.286 71.1996 109.113 71.0618 110.915 70.6016C112.741 70.1643 114.125 69.4583 115.065 68.4838C116.277 67.1143 116.033 65.6032 114.333 63.9506C113.34 63.1304 112.344 62.5379 111.346 62.1731C110.469 61.8272 109.682 61.3576 108.986 60.7643C108.31 60.0982 107.774 59.3304 107.378 58.4608C106.907 57.5225 106.233 56.6048 105.356 55.7077C104.508 54.9293 103.675 54.5095 102.858 54.4485C102.064 54.3626 101.357 54.6563 100.739 55.3296C99.8732 56.3729 99.3001 57.8229 99.0198 59.6798C98.7147 61.5138 98.7329 63.346 99.0746 65.1764C99.4162 67.0067 100.075 68.4162 101.052 69.4049ZM106.104 74.9399C105.733 75.7943 105.637 76.625 105.815 77.4321C105.993 78.2391 106.415 78.8561 107.08 79.283C107.766 79.6371 108.485 79.6543 109.239 79.3347C109.944 79.0171 110.518 78.4415 110.962 77.6079C111.333 76.7535 111.429 75.9228 111.251 75.1157C111.096 74.2837 110.674 73.6668 109.986 73.2648C109.3 72.9107 108.58 72.8935 107.827 73.2131C107.122 73.5307 106.548 74.1063 106.104 74.9399ZM102.238 72.7687C101.504 72.4166 100.703 72.4627 99.8356 72.907C98.9909 73.3264 98.2915 74.0631 97.7375 75.117C97.2312 76.1689 97.0464 77.1711 97.1828 78.1237C97.2944 79.0534 97.7066 79.7307 98.4196 80.1555C99.1783 80.5305 99.9801 80.5083 100.825 80.0889C101.692 79.6446 102.403 78.8954 102.957 77.8415C103.463 76.7896 103.648 75.7874 103.512 74.8348C103.4 73.9051 102.976 73.2164 102.238 72.7687ZM90.6965 64.2398C91.1784 64.8662 91.829 65.2338 92.6483 65.3426C93.4676 65.4514 94.2871 65.2847 95.1069 64.8424C95.8996 64.3294 96.4242 63.708 96.6806 62.9783C96.935 62.2007 96.8566 61.4852 96.4453 60.8319C95.9634 60.2055 95.3127 59.8379 94.4935 59.7291C93.6742 59.6203 92.8546 59.787 92.0349 60.2293C91.2421 60.7423 90.73 61.3752 90.4986 62.1278C90.2442 62.9054 90.3102 63.6094 90.6965 64.2398ZM97.562 68.4755C97.103 67.8242 96.393 67.4711 95.4323 67.4163C94.4715 67.3614 93.4887 67.6309 92.4837 68.2249C91.4808 68.8667 90.8064 69.6262 90.4604 70.5035C90.0916 71.4058 90.1263 72.219 90.5645 72.9431C91.0235 73.5944 91.7334 73.9474 92.6942 74.0023C93.6549 74.0572 94.6378 73.7876 95.6428 73.1937C96.6457 72.5519 97.3201 71.7924 97.6661 70.915C98.0349 70.0128 98.0002 69.1996 97.562 68.4755Z" fill="#ffffff"/>
<path d="M50.0945 65.7526C51.1627 66.6415 52.6232 67.1782 54.476 67.3628C56.3288 67.5473 58.1559 67.4095 59.9572 66.9493C61.7835 66.512 63.1671 65.8061 64.1079 64.8315C65.3194 63.462 65.0752 61.9509 63.3754 60.2983C62.3821 59.4781 61.3864 58.8856 60.3885 58.5208C59.5111 58.1749 58.7244 57.7053 58.0282 57.112C57.3529 56.446 56.8169 55.6781 56.4204 54.8085C55.9491 53.8702 55.2751 52.9525 54.3982 52.0555C53.5503 51.277 52.7178 50.8572 51.9005 50.7963C51.1062 50.7103 50.3999 51.004 49.7817 51.6773C48.9157 52.7206 48.3426 54.1707 48.0624 56.0276C47.7572 57.8616 47.7755 59.6937 48.1171 61.5241C48.4587 63.3545 49.1179 64.764 50.0945 65.7526ZM55.1466 71.2876C54.7757 72.142 54.6793 72.9728 54.8575 73.7798C55.0357 74.5869 55.4573 75.2038 56.1225 75.6307C56.8085 75.9848 57.528 76.0021 58.2811 75.6824C58.9864 75.3648 59.5608 74.7892 60.0045 73.9557C60.3754 73.1012 60.4717 72.2705 60.2935 71.4634C60.1382 70.6315 59.7166 70.0145 59.0286 69.6126C58.3426 69.2584 57.623 69.2412 56.8699 69.5609C56.1647 69.8785 55.5902 70.454 55.1466 71.2876ZM51.2802 69.1164C50.5464 68.7643 49.7457 68.8105 48.8781 69.2548C48.0334 69.6742 47.3341 70.4108 46.78 71.4647C46.2738 72.5166 46.0889 73.5189 46.2254 74.4715C46.3369 75.4011 46.7491 76.0784 47.4621 76.5033C48.2209 76.8782 49.0226 76.856 49.8673 76.4366C50.7349 75.9923 51.4457 75.2432 51.9997 74.1892C52.506 73.1374 52.6908 72.1351 52.5544 71.1825C52.4428 70.2528 52.0181 69.5641 51.2802 69.1164ZM39.739 60.5876C40.221 61.2139 40.8716 61.5815 41.6909 61.6904C42.5102 61.7992 43.3297 61.6324 44.1494 61.1902C44.9422 60.6771 45.4668 60.0558 45.7232 59.326C45.9775 58.5484 45.8991 57.833 45.4879 57.1796C45.0059 56.5533 44.3553 56.1857 43.536 56.0768C42.7167 55.968 41.8972 56.1348 41.0774 56.577C40.2847 57.0901 39.7726 57.7229 39.5411 58.4755C39.2867 59.2531 39.3527 59.9571 39.739 60.5876ZM46.6046 64.8233C46.1455 64.1719 45.4356 63.8189 44.4748 63.764C43.5141 63.7091 42.5312 63.9787 41.5263 64.5726C40.5234 65.2144 39.8489 65.9739 39.503 66.8513C39.1341 67.7535 39.1688 68.5667 39.607 69.2908C40.0661 69.9421 40.776 70.2952 41.7367 70.35C42.6975 70.4049 43.6803 70.1354 44.6853 69.5414C45.6882 68.8996 46.3627 68.1401 46.7086 67.2628C47.0774 66.3605 47.0428 65.5473 46.6046 64.8233Z" fill="#ffffff"/>
<path d="M59.8476 108.512C61.0645 109.183 62.6 109.434 64.4544 109.265C66.3087 109.097 68.0769 108.616 69.7589 107.824C71.4698 107.05 72.6951 106.095 73.435 104.961C74.366 103.387 73.8409 101.949 71.8597 100.647C70.7293 100.03 69.6396 99.6358 68.5908 99.466C67.6639 99.292 66.8026 98.9794 66.0069 98.5282C65.218 98.0017 64.5467 97.3489 63.9931 96.5698C63.3531 95.7374 62.5179 94.9635 61.4874 94.2482C60.5078 93.6438 59.6109 93.3888 58.7969 93.4833C58.0006 93.5489 57.3625 93.9707 56.8825 94.7486C56.2291 95.9366 55.9402 97.4688 56.0156 99.3452C56.0623 101.204 56.4262 103 57.1073 104.733C57.7884 106.465 58.7019 107.725 59.8476 108.512ZM65.854 112.993C65.6511 113.902 65.7134 114.736 66.0408 115.495C66.3682 116.254 66.8987 116.78 67.6325 117.074C68.373 117.292 69.0829 117.173 69.7621 116.717C70.3947 116.272 70.8501 115.598 71.1284 114.696C71.3312 113.787 71.269 112.953 70.9416 112.194C70.632 111.406 70.1014 110.88 69.3499 110.615C68.6093 110.397 67.8995 110.516 67.2203 110.972C66.5877 111.417 66.1323 112.091 65.854 112.993ZM61.6472 111.591C60.8601 111.384 60.0825 111.58 59.3145 112.18C58.5642 112.752 58.0165 113.607 57.6714 114.747C57.3729 115.875 57.3806 116.894 57.6945 117.804C57.9796 118.696 58.5124 119.283 59.2927 119.566C60.1086 119.791 60.8917 119.618 61.642 119.046C62.4101 118.446 62.9667 117.576 63.3117 116.437C63.6102 115.308 63.6025 114.289 63.2886 113.379C63.0035 112.487 62.4564 111.891 61.6472 111.591ZM48.7031 105.395C49.2947 105.919 50.003 106.157 50.8281 106.109C51.6532 106.061 52.4265 105.743 53.148 105.154C53.8296 104.5 54.2274 103.791 54.3414 103.026C54.4443 102.214 54.2322 101.527 53.705 100.963C53.1134 100.439 52.4051 100.201 51.58 100.248C50.7549 100.296 49.9816 100.615 49.2601 101.204C48.5785 101.857 48.1951 102.575 48.1099 103.358C48.007 104.17 48.2047 104.849 48.7031 105.395ZM56.245 108.258C55.6712 107.705 54.9074 107.492 53.9536 107.62C52.9997 107.747 52.0855 108.198 51.2107 108.971C50.3471 109.79 49.8282 110.664 49.6541 111.591C49.4623 112.546 49.6499 113.338 50.217 113.966C50.7908 114.519 51.5546 114.732 52.5084 114.605C53.4622 114.477 54.3765 114.027 55.2512 113.254C56.1149 112.434 56.6338 111.561 56.8078 110.634C56.9997 109.678 56.812 108.886 56.245 108.258Z" fill="#ffffff"/>
<path d="M14.7793 126C16.1588 126.168 17.6771 125.828 19.3342 124.979C20.9913 124.13 22.4521 123.024 23.7165 121.66C25.0143 120.303 25.7945 118.96 26.0569 117.631C26.3328 115.824 25.3087 114.686 22.9845 114.218C21.7051 114.068 20.5473 114.109 19.5109 114.344C18.5861 114.528 17.6704 114.56 16.7638 114.439C15.8353 114.245 14.9688 113.89 14.1643 113.374C13.2596 112.841 12.1958 112.435 10.9727 112.157C9.83823 111.962 8.91108 112.06 8.19121 112.452C7.47707 112.81 7.04268 113.44 6.88804 114.341C6.72568 115.687 7.02994 117.216 7.80084 118.929C8.53837 120.635 9.54668 122.165 10.8258 123.518C12.1049 124.871 13.4227 125.699 14.7793 126ZM22.0249 127.914C22.1762 128.833 22.5455 129.583 23.1326 130.165C23.7198 130.746 24.4085 131.036 25.1989 131.035C25.9673 130.96 26.5813 130.585 27.041 129.908C27.4615 129.259 27.6324 128.464 27.5534 127.523C27.4021 126.604 27.0328 125.854 26.4457 125.272C25.8642 124.657 25.1755 124.367 24.3794 124.402C23.611 124.476 22.997 124.852 22.5373 125.528C22.1168 126.178 21.9459 126.973 22.0249 127.914ZM17.5988 128.184C16.7913 128.286 16.1434 128.759 15.6551 129.603C15.1726 130.413 14.9841 131.411 15.0896 132.597C15.2343 133.755 15.6221 134.698 16.2531 135.424C16.8506 136.145 17.5642 136.491 18.3936 136.462C19.2345 136.366 19.8962 135.912 20.3788 135.102C20.8671 134.258 21.0584 133.244 20.9529 132.058C20.8082 130.899 20.4204 129.957 19.7894 129.23C19.1918 128.509 18.4616 128.161 17.5988 128.184ZM3.27727 127.272C4.02178 127.537 4.76779 127.493 5.5153 127.141C6.26281 126.788 6.86116 126.204 7.31037 125.388C7.69857 124.527 7.80266 123.721 7.62264 122.968C7.41498 122.177 6.9613 121.618 6.26161 121.292C5.5171 121.027 4.77109 121.071 4.02358 121.423C3.27608 121.776 2.67772 122.36 2.22851 123.176C1.84031 124.037 1.75291 124.846 1.96629 125.604C2.17395 126.395 2.61095 126.951 3.27727 127.272ZM11.3427 127.111C10.6039 126.812 9.81594 126.9 8.97879 127.375C8.14164 127.849 7.46173 128.608 6.93907 129.652C6.44404 130.735 6.28891 131.739 6.47366 132.664C6.65268 133.622 7.12254 134.286 7.88324 134.657C8.62202 134.956 9.40999 134.868 10.2471 134.393C11.0843 133.919 11.7642 133.16 12.2869 132.116C12.7819 131.033 12.937 130.029 12.7523 129.104C12.5732 128.146 12.1034 127.482 11.3427 127.111Z" fill="#ffffff"/>
<path d="M48.4095 148.882C49.789 149.05 51.3073 148.71 52.9644 147.861C54.6215 147.012 56.0823 145.906 57.3467 144.543C58.6445 143.185 59.4247 141.842 59.6871 140.513C59.963 138.706 58.9389 137.568 56.6147 137.101C55.3353 136.95 54.1775 136.991 53.1411 137.226C52.2163 137.41 51.3006 137.442 50.394 137.321C49.4655 137.127 48.599 136.772 47.7945 136.256C46.8898 135.723 45.826 135.317 44.6029 135.039C43.4684 134.844 42.5413 134.943 41.8214 135.334C41.1073 135.692 40.6729 136.322 40.5182 137.223C40.3559 138.569 40.6601 140.098 41.431 141.811C42.1686 143.517 43.1769 145.047 44.456 146.4C45.7351 147.753 47.0529 148.581 48.4095 148.882ZM55.6551 150.796C55.8064 151.715 56.1757 152.465 56.7628 153.047C57.35 153.629 58.0387 153.919 58.8291 153.917C59.5975 153.843 60.2115 153.467 60.6712 152.79C61.0918 152.141 61.2626 151.346 61.1836 150.405C61.0323 149.486 60.663 148.736 60.0759 148.154C59.4944 147.539 58.8057 147.249 58.0097 147.284C57.2412 147.358 56.6272 147.734 56.1675 148.411C55.747 149.06 55.5761 149.855 55.6551 150.796ZM51.2291 151.067C50.4215 151.168 49.7736 151.641 49.2853 152.485C48.8028 153.295 48.6143 154.293 48.7198 155.479C48.8645 156.637 49.2523 157.58 49.8833 158.307C50.4809 159.027 51.1944 159.373 52.0238 159.344C52.8647 159.248 53.5264 158.794 54.009 157.984C54.4973 157.141 54.6886 156.126 54.5831 154.94C54.4384 153.781 54.0506 152.839 53.4196 152.112C52.822 151.392 52.0918 151.043 51.2291 151.067ZM36.9075 150.154C37.652 150.419 38.398 150.375 39.1455 150.023C39.893 149.67 40.4914 149.086 40.9406 148.27C41.3288 147.409 41.4329 146.603 41.2528 145.851C41.0452 145.059 40.5915 144.5 39.8918 144.174C39.1473 143.909 38.4013 143.953 37.6538 144.305C36.9063 144.658 36.3079 145.242 35.8587 146.058C35.4705 146.919 35.3831 147.728 35.5965 148.486C35.8042 149.278 36.2411 149.834 36.9075 150.154ZM44.9729 149.993C44.2341 149.694 43.4461 149.782 42.609 150.257C41.7718 150.731 41.0919 151.491 40.5693 152.534C40.0742 153.617 39.9191 154.621 40.1039 155.546C40.2829 156.504 40.7527 157.169 41.5134 157.54C42.2522 157.838 43.0402 157.75 43.8773 157.276C44.7145 156.801 45.3944 156.042 45.9171 154.998C46.4121 153.915 46.5672 152.911 46.3825 151.986C46.2034 151.028 45.7336 150.364 44.9729 149.993Z" fill="#ffffff"/>
<path d="M17.7111 187.133C19.0493 186.758 20.3202 185.861 21.5238 184.44C22.7274 183.019 23.6511 181.437 24.2947 179.693C24.9713 177.941 25.1755 176.401 24.9071 175.073C24.4673 173.298 23.0847 172.642 20.7592 173.103C19.5201 173.455 18.4672 173.939 17.6004 174.553C16.8176 175.079 15.9844 175.46 15.1008 175.697C14.1691 175.875 13.2328 175.88 12.2918 175.713C11.2517 175.568 10.1136 175.602 8.87733 175.815C7.75515 176.071 6.93701 176.518 6.42291 177.157C5.90128 177.762 5.74217 178.51 5.94557 179.401C6.31292 180.706 7.18145 182.001 8.55115 183.286C9.88785 184.578 11.4066 185.603 13.1075 186.361C14.8083 187.119 16.3429 187.376 17.7111 187.133ZM25.1357 186.116C25.6286 186.906 26.2579 187.457 27.0235 187.768C27.789 188.08 28.5363 188.083 29.2653 187.777C29.9462 187.414 30.3688 186.831 30.5332 186.03C30.672 185.269 30.5242 184.469 30.0898 183.631C29.5968 182.84 28.9676 182.289 28.202 181.978C27.4289 181.634 26.6816 181.631 25.9602 181.969C25.2793 182.333 24.8566 182.915 24.6923 183.717C24.5535 184.478 24.7013 185.277 25.1357 186.116ZM21.1536 188.066C20.4472 188.471 20.0306 189.156 19.904 190.123C19.7698 191.056 19.9793 192.05 20.5325 193.104C21.1112 194.118 21.8314 194.839 22.6931 195.268C23.5218 195.703 24.3134 195.749 25.0678 195.403C25.8072 194.991 26.244 194.318 26.3782 193.385C26.5048 192.418 26.2916 191.408 25.7384 190.353C25.1597 189.34 24.4395 188.618 23.5778 188.19C22.7491 187.754 21.941 187.713 21.1536 188.066ZM7.58082 192.727C8.37007 192.686 9.04202 192.359 9.59666 191.746C10.1513 191.133 10.4792 190.364 10.5804 189.438C10.608 188.494 10.3942 187.709 9.93895 187.084C9.44316 186.433 8.80961 186.092 8.03829 186.06C7.24903 186.101 6.57709 186.428 6.02245 187.041C5.46781 187.653 5.13991 188.423 5.03873 189.349C5.0111 190.292 5.24141 191.073 5.72966 191.691C6.22545 192.342 6.84251 192.687 7.58082 192.727ZM14.9651 189.479C14.1683 189.487 13.4746 189.871 12.8841 190.631C12.2936 191.391 11.9576 192.353 11.8762 193.517C11.8352 194.707 12.0778 195.694 12.6037 196.477C13.1371 197.292 13.8263 197.725 14.6712 197.776C15.4679 197.767 16.1616 197.383 16.7521 196.624C17.3426 195.864 17.6786 194.902 17.7601 193.737C17.801 192.547 17.5585 191.561 17.0325 190.778C16.4991 189.962 15.8099 189.529 14.9651 189.479Z" fill="#ffffff"/>
<path d="M57.3969 196.377C58.5708 195.633 59.5301 194.408 60.2746 192.701C61.0191 190.995 61.4489 189.214 61.564 187.358C61.7086 185.486 61.4615 183.952 60.8229 182.758C59.8915 181.184 58.3785 180.952 56.2838 182.063C55.1982 182.756 54.3286 183.522 53.6751 184.36C53.0765 185.088 52.388 185.693 51.6096 186.173C50.7684 186.612 49.8731 186.886 48.9237 186.996C47.886 187.157 46.8057 187.516 45.6828 188.076C44.6816 188.643 44.0265 189.307 43.7175 190.066C43.3918 190.796 43.4545 191.558 43.9054 192.353C44.6324 193.497 45.8365 194.488 47.5177 195.325C49.1694 196.178 50.9187 196.724 52.7655 196.96C54.6124 197.197 56.1562 197.003 57.3969 196.377ZM64.2157 193.268C64.915 193.884 65.676 194.23 66.4988 194.309C67.3216 194.387 68.0382 194.175 68.6487 193.673C69.1963 193.129 69.4336 192.449 69.3607 191.634C69.275 190.866 68.9035 190.142 68.2465 189.464C67.5472 188.849 66.7861 188.502 65.9634 188.424C65.1239 188.316 64.4073 188.528 63.8135 189.059C63.2659 189.604 63.0285 190.283 63.1015 191.098C63.1872 191.867 63.5586 192.59 64.2157 193.268ZM60.9623 196.281C60.4019 196.871 60.2 197.648 60.3564 198.61C60.4962 199.542 60.9826 200.434 61.8155 201.285C62.6611 202.09 63.5582 202.573 64.5067 202.736C65.4257 202.915 66.1968 202.731 66.82 202.183C67.4099 201.576 67.6349 200.806 67.4951 199.873C67.3386 198.911 66.8439 198.005 66.011 197.154C65.1654 196.349 64.2683 195.866 63.3198 195.703C62.4008 195.524 61.6149 195.716 60.9623 196.281ZM49.3019 204.646C50.0459 204.38 50.5956 203.874 50.9507 203.127C51.3058 202.381 51.3987 201.55 51.2295 200.634C50.9847 199.722 50.5544 199.032 49.9386 198.564C49.2767 198.083 48.5717 197.938 47.8236 198.129C47.0795 198.395 46.5299 198.901 46.1748 199.648C45.8197 200.394 45.7268 201.225 45.896 202.141C46.1408 203.053 46.5858 203.735 47.2311 204.186C47.893 204.667 48.5832 204.82 49.3019 204.646ZM55.4409 199.413C54.6801 199.65 54.1261 200.217 53.7789 201.114C53.4317 202.012 53.3865 203.03 53.6432 204.169C53.946 205.32 54.4618 206.195 55.1905 206.794C55.936 207.422 56.7205 207.639 57.5442 207.444C58.305 207.207 58.859 206.64 59.2062 205.742C59.5534 204.845 59.5986 203.827 59.3419 202.688C59.0391 201.537 58.5233 200.661 57.7945 200.063C57.0491 199.435 56.2646 199.218 55.4409 199.413Z" fill="#ffffff"/>
<path d="M48.0581 234.773C49.032 233.782 49.6873 232.37 50.0239 230.539C50.3606 228.708 50.3738 226.875 50.0637 225.042C49.7784 223.186 49.1889 221.749 48.2952 220.731C47.0302 219.411 45.5041 219.53 43.717 221.087C42.8177 222.01 42.1452 222.953 41.6994 223.918C41.2823 224.764 40.7495 225.509 40.1008 226.154C39.3814 226.772 38.572 227.243 37.6727 227.566C36.6987 227.959 35.7286 228.555 34.7623 229.355C33.9166 230.136 33.4297 230.931 33.3015 231.74C33.1504 232.525 33.3849 233.253 34.0049 233.924C34.9733 234.873 36.3712 235.564 38.1987 235.996C40.0013 236.452 41.8287 236.585 43.681 236.395C45.5333 236.205 46.9923 235.665 48.0581 234.773ZM53.9907 230.194C54.8116 230.634 55.6316 230.799 56.4506 230.688C57.2696 230.577 57.9192 230.207 58.3995 229.58C58.8089 228.925 58.8854 228.209 58.6289 227.433C58.3705 226.703 57.8442 226.084 57.0501 225.573C56.2291 225.133 55.4091 224.968 54.5902 225.079C53.7482 225.165 53.0986 225.535 52.6413 226.187C52.2319 226.842 52.1554 227.557 52.4119 228.334C52.6702 229.063 53.1965 229.683 53.9907 230.194ZM51.5082 233.868C51.0968 234.571 51.0768 235.372 51.4481 236.274C51.7964 237.15 52.4729 237.908 53.4776 238.547C54.4842 239.138 55.4678 239.405 56.4284 239.347C57.3641 239.313 58.073 238.958 58.5552 238.282C58.9914 237.557 59.0354 236.756 58.687 235.88C58.3157 234.979 57.6277 234.208 56.6231 233.569C55.6165 232.978 54.6329 232.711 53.6723 232.769C52.7366 232.803 52.0152 233.17 51.5082 233.868ZM42.0571 244.667C42.7211 244.239 43.141 243.621 43.317 242.813C43.493 242.005 43.3944 241.175 43.0212 240.322C42.5752 239.489 41.9992 238.915 41.2931 238.6C40.5391 238.282 39.8196 238.301 39.1346 238.657C38.4706 239.086 38.0507 239.704 37.8747 240.511C37.6987 241.319 37.7973 242.149 38.1705 243.003C38.6165 243.835 39.2049 244.398 39.9359 244.69C40.6899 245.008 41.397 245 42.0571 244.667ZM46.8443 238.174C46.1573 238.578 45.7469 239.256 45.6131 240.209C45.4792 241.162 45.6668 242.164 46.1759 243.215C46.7328 244.267 47.4342 245.002 48.28 245.419C49.1488 245.861 49.9621 245.893 50.7198 245.516C51.4068 245.112 51.8172 244.434 51.951 243.481C52.0849 242.528 51.8973 241.526 51.3882 240.476C50.8312 239.423 50.1299 238.689 49.284 238.272C48.4153 237.83 47.602 237.797 46.8443 238.174Z" fill="#ffffff"/>
<path d="M97.5107 235.306C98.4846 234.314 99.1399 232.903 99.4765 231.072C99.8131 229.24 99.8264 227.408 99.5162 225.575C99.2309 223.719 98.6414 222.282 97.7477 221.264C96.4828 219.944 94.9567 220.063 93.1696 221.62C92.2703 222.543 91.5978 223.486 91.152 224.451C90.7349 225.296 90.202 226.042 89.5534 226.687C88.834 227.305 88.0246 227.776 87.1252 228.099C86.1513 228.491 85.1811 229.088 84.2149 229.888C83.3691 230.668 82.8822 231.464 82.7541 232.273C82.603 233.058 82.8374 233.786 83.4575 234.457C84.4258 235.406 85.8237 236.097 87.6512 236.529C89.4538 236.985 91.2813 237.117 93.1336 236.928C94.9859 236.738 96.4449 236.197 97.5107 235.306ZM103.443 230.727C104.264 231.167 105.084 231.332 105.903 231.22C106.722 231.109 107.372 230.74 107.852 230.112C108.261 229.458 108.338 228.742 108.081 227.965C107.823 227.236 107.297 226.616 106.503 226.105C105.682 225.665 104.862 225.501 104.043 225.612C103.201 225.698 102.551 226.068 102.094 226.72C101.684 227.375 101.608 228.09 101.864 228.867C102.123 229.596 102.649 230.216 103.443 230.727ZM100.961 234.401C100.549 235.104 100.529 235.905 100.901 236.807C101.249 237.683 101.926 238.441 102.93 239.08C103.937 239.671 104.92 239.938 105.881 239.88C106.817 239.846 107.526 239.491 108.008 238.815C108.444 238.09 108.488 237.289 108.14 236.413C107.768 235.511 107.08 234.741 106.076 234.102C105.069 233.511 104.085 233.244 103.125 233.302C102.189 233.336 101.468 233.703 100.961 234.401ZM91.5097 245.2C92.1736 244.771 92.5936 244.153 92.7696 243.346C92.9456 242.538 92.8469 241.708 92.4737 240.854C92.0278 240.022 91.4518 239.448 90.7456 239.132C89.9917 238.815 89.2722 238.834 88.5872 239.19C87.9232 239.619 87.5032 240.237 87.3272 241.044C87.1513 241.852 87.2499 242.682 87.6231 243.536C88.069 244.368 88.6575 244.931 89.3885 245.223C90.1425 245.541 90.8495 245.533 91.5097 245.2ZM96.2968 238.707C95.6099 239.111 95.1995 239.789 95.0656 240.742C94.9318 241.695 95.1194 242.697 95.6285 243.747C96.1854 244.8 96.8868 245.535 97.7326 245.952C98.6014 246.394 99.4146 246.426 100.172 246.049C100.859 245.645 101.27 244.967 101.404 244.014C101.537 243.061 101.35 242.059 100.841 241.009C100.284 239.956 99.5824 239.222 98.7366 238.804C97.8678 238.363 97.0546 238.33 96.2968 238.707Z" fill="#ffffff"/>
</svg>
