<svg width="45" height="163" viewBox="0 0 45 163" fill="none" xmlns="http://www.w3.org/2000/svg">
<path d="M12.2928 42.4391C11.6045 43.0119 10.6634 43.3578 9.46953 43.4767C8.27564 43.5956 7.09833 43.5068 5.9376 43.2102C4.76079 42.9285 3.86928 42.4736 3.26305 41.8456C2.48241 40.9631 2.63973 39.9895 3.73502 38.9245C4.37513 38.396 5.0167 38.0143 5.65973 37.7792C6.22505 37.5563 6.73201 37.2537 7.18062 36.8714C7.61578 36.4422 7.96111 35.9475 8.21659 35.3871C8.52029 34.7825 8.95465 34.1912 9.51967 33.6131C10.066 33.1115 10.6025 32.841 11.1291 32.8017C11.6409 32.7464 12.096 32.9356 12.4944 33.3695C13.0524 34.0417 13.4217 34.9761 13.6023 36.1726C13.7989 37.3544 13.7871 38.535 13.567 39.7144C13.3469 40.8938 12.9221 41.8021 12.2928 42.4391ZM9.03745 46.0057C9.27643 46.5563 9.33852 47.0916 9.2237 47.6116C9.10889 48.1316 8.83719 48.5292 8.40859 48.8043C7.96656 49.0324 7.50291 49.0435 7.01764 48.8376C6.5632 48.6329 6.19303 48.262 5.90716 47.7249C5.66817 47.1743 5.60609 46.639 5.7209 46.119C5.82096 45.5829 6.09266 45.1853 6.53601 44.9263C6.97804 44.6982 7.44169 44.6871 7.92696 44.893C8.38141 45.0977 8.75157 45.4686 9.03745 46.0057ZM11.5288 44.6066C12.0016 44.3798 12.5176 44.4095 13.0766 44.6958C13.6209 44.9661 14.0716 45.4407 14.4286 46.1198C14.7548 46.7976 14.8739 47.4435 14.786 48.0573C14.7141 48.6563 14.4485 49.0927 13.9891 49.3665C13.5001 49.6081 12.9835 49.5938 12.4392 49.3236C11.8802 49.0372 11.4222 48.5545 11.0652 47.8754C10.739 47.1976 10.6198 46.5518 10.7078 45.938C10.7796 45.3389 11.0533 44.8951 11.5288 44.6066ZM18.9656 39.1109C18.655 39.5146 18.2358 39.7514 17.7079 39.8215C17.1799 39.8917 16.6519 39.7842 16.1236 39.4992C15.6128 39.1687 15.2748 38.7683 15.1096 38.298C14.9457 37.797 14.9962 37.336 15.2612 36.915C15.5718 36.5114 15.991 36.2745 16.5189 36.2044C17.0468 36.1343 17.5749 36.2417 18.1031 36.5267C18.614 36.8573 18.944 37.265 19.0931 37.75C19.257 38.2511 19.2145 38.7047 18.9656 39.1109ZM14.5416 41.8403C14.8374 41.4206 15.2949 41.1931 15.914 41.1577C16.533 41.1224 17.1664 41.2961 17.8139 41.6788C18.4602 42.0923 18.8948 42.5818 19.1177 43.1471C19.3553 43.7285 19.333 44.2524 19.0506 44.719C18.7548 45.1387 18.2974 45.3662 17.6783 45.4016C17.0592 45.4369 16.4259 45.2632 15.7783 44.8805C15.1321 44.467 14.6975 43.9775 14.4746 43.4122C14.2369 42.8308 14.2593 42.3069 14.5416 41.8403Z" fill="white"/>
<path d="M5.96046 69.8718C5.17637 70.3043 4.18689 70.4662 2.99202 70.3575C1.79715 70.2488 0.657792 69.9393 -0.426062 69.4289C-1.52848 68.93 -2.31806 68.3149 -2.79479 67.5838C-3.39475 66.5698 -3.05639 65.6433 -1.77972 64.8044C-1.05132 64.4063 -0.349199 64.1525 0.326649 64.0431C0.923892 63.931 1.47888 63.7296 1.9916 63.4389C2.49998 63.0996 2.93252 62.6789 3.28922 62.1769C3.70163 61.6405 4.23984 61.1419 4.90385 60.6809C5.53507 60.2915 6.11297 60.1272 6.63752 60.188C7.15062 60.2303 7.5618 60.5021 7.87107 61.0034C8.2921 61.7689 8.4783 62.7562 8.42966 63.9653C8.39959 65.1629 8.16511 66.3201 7.72621 67.4367C7.28732 68.5534 6.69873 69.3651 5.96046 69.8718ZM2.09013 72.7595C2.22085 73.3453 2.18073 73.8827 1.96978 74.3717C1.75883 74.8607 1.41694 75.1997 0.944123 75.3889C0.466958 75.5295 0.00955227 75.4529 -0.428094 75.159C-0.83572 74.8722 -1.12918 74.4381 -1.30849 73.8566C-1.43921 73.2708 -1.39909 72.7334 -1.18814 72.2444C-0.988643 71.7369 -0.646757 71.3978 -0.16248 71.2272C0.314685 71.0866 0.77209 71.1632 1.20974 71.4571C1.61736 71.7439 1.91083 72.178 2.09013 72.7595ZM4.80085 71.856C5.30804 71.7225 5.80909 71.8492 6.304 72.2359C6.78747 72.6041 7.14037 73.1553 7.36273 73.8896C7.55506 74.6168 7.55009 75.2735 7.34783 75.8597C7.16413 76.4344 6.82085 76.8128 6.31801 76.9948C5.79226 77.1398 5.28766 77.0282 4.80419 76.66C4.30928 76.2733 3.95064 75.7128 3.72829 74.9785C3.53596 74.2513 3.54093 73.5946 3.74319 73.0084C3.92689 72.4337 4.27944 72.0496 4.80085 71.856ZM13.1416 67.8636C12.7604 68.2013 12.304 68.3547 11.7723 68.3239C11.2407 68.293 10.7424 68.0878 10.2775 67.7082C9.83828 67.2871 9.58194 66.8301 9.5085 66.3371C9.44216 65.8141 9.57885 65.371 9.91856 65.0076C10.2998 64.6699 10.7562 64.5164 11.2878 64.5473C11.8195 64.5781 12.3178 64.7833 12.7827 65.1629C13.2219 65.584 13.469 66.0468 13.5238 66.5512C13.5902 67.0742 13.4628 67.5116 13.1416 67.8636ZM8.28188 69.7084C8.65161 69.3521 9.14379 69.2151 9.7584 69.2973C10.373 69.3794 10.9621 69.6696 11.5258 70.1677C12.0823 70.6958 12.4167 71.2585 12.5288 71.8558C12.6524 72.4716 12.5315 72.9819 12.1661 73.3868C11.7964 73.7431 11.3042 73.8801 10.6896 73.7979C10.075 73.7157 9.48587 73.4256 8.92222 72.9275C8.36569 72.3993 8.03135 71.8366 7.9192 71.2394C7.79559 70.6236 7.91648 70.1132 8.28188 69.7084Z" fill="white"/>
<path d="M34.9768 80.8833C34.0879 80.9917 33.1096 80.7723 32.0418 80.2251C30.974 79.678 30.0327 78.9653 29.218 78.087C28.3817 77.2124 27.879 76.347 27.7099 75.4907C27.5321 74.326 28.192 73.5929 29.6896 73.2916C30.514 73.1944 31.2601 73.2212 31.9279 73.3722C32.5238 73.4913 33.1139 73.5117 33.698 73.4336C34.2964 73.3087 34.8547 73.0801 35.3731 72.7476C35.956 72.4041 36.6415 72.1426 37.4297 71.963C38.1607 71.8375 38.7581 71.901 39.222 72.1534C39.6821 72.3843 39.962 72.7899 40.0617 73.3704C40.1663 74.2378 39.9702 75.2232 39.4735 76.3266C38.9983 77.4264 38.3485 78.4122 37.5243 79.284C36.7001 80.1559 35.8509 80.689 34.9768 80.8833ZM30.308 82.1164C30.2105 82.7086 29.9725 83.1921 29.5942 83.5669C29.2158 83.9417 28.772 84.1286 28.2628 84.1274C27.7676 84.0796 27.372 83.8377 27.0758 83.4016C26.8048 82.9833 26.6947 82.471 26.7456 81.8646C26.8431 81.2724 27.081 80.7889 27.4594 80.4141C27.834 80.0178 28.2778 79.8309 28.7908 79.8536C29.2859 79.9014 29.6816 80.1433 29.9778 80.5794C30.2488 80.9977 30.3589 81.51 30.308 82.1164ZM33.16 82.2908C33.6803 82.3564 34.0978 82.661 34.4125 83.2046C34.7234 83.7267 34.8449 84.3699 34.7768 85.1341C34.6836 85.8805 34.4337 86.4878 34.0272 86.956C33.6421 87.4205 33.1823 87.6433 32.6479 87.6244C32.106 87.5624 31.6796 87.2704 31.3687 86.7483C31.054 86.2047 30.9307 85.5508 30.9988 84.7866C31.092 84.0402 31.3419 83.4329 31.7484 82.9647C32.1335 82.5002 32.604 82.2756 33.16 82.2908ZM42.3883 81.7028C41.9086 81.8737 41.4279 81.8455 40.9462 81.6183C40.4646 81.3911 40.079 81.0146 39.7895 80.4888C39.5394 79.9342 39.4723 79.4145 39.5883 78.9298C39.7221 78.4199 40.0145 78.0598 40.4653 77.8496C40.9451 77.6787 41.4258 77.7069 41.9074 77.9341C42.3891 78.1613 42.7747 78.5378 43.0641 79.0635C43.3143 79.6182 43.3706 80.1397 43.2331 80.6282C43.0993 81.1381 42.8177 81.4963 42.3883 81.7028ZM37.1912 81.5988C37.6673 81.4065 38.175 81.4632 38.7145 81.769C39.2539 82.0748 39.692 82.564 40.0288 83.2366C40.3478 83.9344 40.4477 84.5812 40.3287 85.1771C40.2133 85.7946 39.9106 86.2228 39.4204 86.4619C38.9444 86.6542 38.4366 86.5975 37.8972 86.2917C37.3578 85.9859 36.9196 85.4967 36.5829 84.8241C36.2639 84.1263 36.1639 83.4795 36.283 82.8836C36.3983 82.2662 36.7011 81.8379 37.1912 81.5988Z" fill="white"/>
<path d="M13.3066 95.628C12.4178 95.7363 11.4394 95.5169 10.3716 94.9698C9.30384 94.4226 8.36256 93.7099 7.54779 92.8316C6.71153 91.957 6.20883 91.0916 6.03971 90.2353C5.86193 89.0706 6.52184 88.3376 8.01947 88.0362C8.84385 87.939 9.58994 87.9659 10.2577 88.1168C10.8536 88.2359 11.4437 88.2563 12.0279 88.1782C12.6262 88.0534 13.1846 87.8247 13.703 87.4923C14.2859 87.1487 14.9714 86.8872 15.7595 86.7076C16.4905 86.5822 17.0879 86.6456 17.5518 86.898C18.012 87.1289 18.2919 87.5346 18.3915 88.1151C18.4961 88.9825 18.3001 89.9679 17.8033 91.0713C17.3281 92.171 16.6784 93.1568 15.8542 94.0287C15.0299 94.9006 14.1808 95.4337 13.3066 95.628ZM8.63784 96.861C8.54029 97.4532 8.30235 97.9367 7.92402 98.3115C7.54568 98.6863 7.10188 98.8732 6.59262 98.8721C6.09747 98.8243 5.7018 98.5823 5.40561 98.1462C5.13461 97.7279 5.02454 97.2156 5.07539 96.6093C5.17294 96.0171 5.41088 95.5335 5.78922 95.1587C6.16386 94.7624 6.60766 94.5756 7.12062 94.5982C7.61576 94.646 8.01143 94.888 8.30762 95.324C8.57862 95.7423 8.6887 96.2546 8.63784 96.861ZM11.4898 97.0354C12.0102 97.1011 12.4276 97.4057 12.7423 97.9493C13.0532 98.4714 13.1747 99.1145 13.1067 99.8787C13.0135 100.625 12.7636 101.232 12.357 101.701C11.9719 102.165 11.5122 102.388 10.9777 102.369C10.4359 102.307 10.0095 102.015 9.69853 101.493C9.38388 100.949 9.26057 100.295 9.3286 99.5312C9.42181 98.7848 9.6717 98.1775 10.0783 97.7093C10.4633 97.2448 10.9339 97.0202 11.4898 97.0354ZM20.7182 96.4474C20.2384 96.6183 19.7577 96.5901 19.2761 96.3629C18.7944 96.1357 18.4088 95.7593 18.1194 95.2335C17.8692 94.6788 17.8022 94.1591 17.9182 93.6744C18.052 93.1645 18.3443 92.8044 18.7952 92.5942C19.2749 92.4234 19.7556 92.4515 20.2373 92.6787C20.7189 92.9059 21.1045 93.2824 21.394 93.8082C21.6441 94.3628 21.7004 94.8844 21.5629 95.3728C21.4291 95.8827 21.1475 96.2409 20.7182 96.4474ZM15.5211 96.3435C15.9971 96.1511 16.5049 96.2078 17.0443 96.5136C17.5837 96.8194 18.0218 97.3086 18.3586 97.9812C18.6776 98.679 18.7776 99.3259 18.6585 99.9218C18.5432 100.539 18.2404 100.967 17.7502 101.206C17.2742 101.399 16.7665 101.342 16.227 101.036C15.6876 100.731 15.2495 100.241 14.9127 99.5687C14.5937 98.871 14.4937 98.2241 14.6128 97.6282C14.7282 97.0108 15.0309 96.5825 15.5211 96.3435Z" fill="white"/>
<path d="M33.1649 120.021C32.3026 119.779 31.4837 119.201 30.7081 118.285C29.9325 117.37 29.3374 116.35 28.9227 115.226C28.4867 114.097 28.3551 113.105 28.528 112.25C28.8114 111.106 29.7023 110.683 31.2008 110.98C31.9992 111.207 32.6777 111.519 33.2362 111.915C33.7406 112.254 34.2775 112.499 34.8469 112.651C35.4472 112.766 36.0506 112.77 36.657 112.662C37.3271 112.569 38.0605 112.591 38.8571 112.728C39.5802 112.893 40.1074 113.181 40.4387 113.592C40.7748 113.982 40.8773 114.464 40.7462 115.038C40.5095 115.879 39.9499 116.714 39.0673 117.542C38.206 118.374 37.2273 119.035 36.1313 119.523C35.0354 120.011 34.0466 120.177 33.1649 120.021ZM28.3807 119.365C28.0631 119.874 27.6576 120.229 27.1643 120.43C26.671 120.631 26.1895 120.633 25.7197 120.436C25.281 120.201 25.0087 119.826 24.9028 119.31C24.8133 118.819 24.9086 118.304 25.1885 117.764C25.5061 117.254 25.9116 116.899 26.4049 116.699C26.9031 116.477 27.3846 116.475 27.8495 116.693C28.2882 116.927 28.5605 117.303 28.6664 117.819C28.7559 118.309 28.6607 118.825 28.3807 119.365ZM30.9467 120.622C31.4019 120.882 31.6703 121.324 31.7519 121.947C31.8383 122.548 31.7033 123.189 31.3469 123.868C30.974 124.522 30.5099 124.986 29.9547 125.262C29.4207 125.543 28.9106 125.572 28.4245 125.349C27.948 125.084 27.6666 124.65 27.5801 124.049C27.4985 123.426 27.6359 122.775 27.9924 122.096C28.3652 121.442 28.8293 120.978 29.3846 120.702C29.9186 120.421 30.4393 120.394 30.9467 120.622ZM39.6925 123.625C39.184 123.599 38.751 123.388 38.3936 122.993C38.0362 122.598 37.8249 122.102 37.7597 121.506C37.7419 120.898 37.8797 120.392 38.173 119.989C38.4925 119.57 38.9007 119.35 39.3978 119.329C39.9063 119.355 40.3393 119.566 40.6967 119.961C41.0541 120.356 41.2654 120.852 41.3306 121.448C41.3484 122.056 41.2 122.56 40.8854 122.958C40.5659 123.377 40.1683 123.599 39.6925 123.625ZM34.9344 121.532C35.4478 121.537 35.8948 121.785 36.2753 122.275C36.6558 122.764 36.8723 123.384 36.9248 124.135C36.9511 124.901 36.7949 125.537 36.456 126.041C36.1122 126.567 35.6681 126.846 35.1237 126.878C34.6103 126.873 34.1634 126.626 33.7828 126.136C33.4023 125.646 33.1858 125.026 33.1334 124.276C33.107 123.509 33.2633 122.874 33.6022 122.369C33.9459 121.844 34.39 121.565 34.9344 121.532Z" fill="white"/>
<path d="M7.7102 125.818C6.95376 125.339 6.33567 124.55 5.85593 123.45C5.3762 122.35 5.09924 121.203 5.02506 120.007C4.93191 118.8 5.0911 117.812 5.50262 117.042C6.10276 116.029 7.07771 115.879 8.42748 116.595C9.127 117.042 9.68732 117.535 10.1084 118.075C10.4942 118.544 10.9378 118.934 11.4394 119.244C11.9814 119.526 12.5583 119.703 13.17 119.774C13.8387 119.877 14.5348 120.109 15.2584 120.469C15.9036 120.835 16.3257 121.263 16.5248 121.752C16.7346 122.222 16.6943 122.713 16.4037 123.225C15.9352 123.963 15.1594 124.601 14.0761 125.14C13.0118 125.69 11.8846 126.042 10.6945 126.194C9.50447 126.347 8.5097 126.222 7.7102 125.818ZM3.31638 123.815C2.86579 124.212 2.3754 124.435 1.84523 124.486C1.31506 124.536 0.853292 124.399 0.45992 124.076C0.107047 123.725 -0.0458777 123.288 0.00114561 122.762C0.0563814 122.267 0.295703 121.801 0.719111 121.364C1.16971 120.968 1.66009 120.744 2.19026 120.694C2.73119 120.624 3.19296 120.761 3.57557 121.103C3.92845 121.454 4.08137 121.892 4.03435 122.417C3.97911 122.912 3.73979 123.378 3.31638 123.815ZM5.41281 125.757C5.77389 126.137 5.90402 126.637 5.80318 127.257C5.71311 127.858 5.39972 128.433 4.86303 128.981C4.31812 129.5 3.74009 129.811 3.12892 129.916C2.53672 130.032 2.03983 129.913 1.63825 129.56C1.25819 129.168 1.11319 128.672 1.20327 128.071C1.3041 127.451 1.62287 126.867 2.15956 126.319C2.70447 125.801 3.2825 125.489 3.89367 125.384C4.48587 125.269 4.99225 125.393 5.41281 125.757ZM12.9264 131.147C12.4469 130.975 12.0928 130.649 11.864 130.168C11.6351 129.687 11.5752 129.152 11.6843 128.561C11.8421 127.974 12.1193 127.529 12.5161 127.228C12.9426 126.918 13.3969 126.824 13.8789 126.947C14.3584 127.119 14.7125 127.445 14.9414 127.926C15.1702 128.407 15.2301 128.942 15.121 129.533C14.9633 130.12 14.6765 130.56 14.2608 130.85C13.8342 131.16 13.3894 131.259 12.9264 131.147ZM8.97059 127.775C9.46083 127.927 9.8178 128.293 10.0415 128.871C10.2653 129.449 10.2944 130.105 10.129 130.839C9.93386 131.581 9.6015 132.145 9.13193 132.531C8.65159 132.936 8.14606 133.075 7.61533 132.95C7.1251 132.797 6.76812 132.432 6.54439 131.853C6.32067 131.275 6.29151 130.619 6.45692 129.885C6.65207 129.143 6.98442 128.579 7.45399 128.193C7.93433 127.789 8.43986 127.649 8.97059 127.775Z" fill="white"/>
<path d="M13.8496 150.462C13.222 149.823 12.7998 148.914 12.5829 147.734C12.3659 146.554 12.3574 145.373 12.5573 144.192C12.7411 142.996 13.1209 142.07 13.6968 141.414C14.5119 140.563 15.4953 140.64 16.6468 141.644C17.2263 142.238 17.6597 142.846 17.9469 143.468C18.2157 144.013 18.559 144.493 18.977 144.908C19.4406 145.307 19.9621 145.61 20.5416 145.819C21.1692 146.071 21.7943 146.456 22.417 146.971C22.9619 147.474 23.2757 147.986 23.3582 148.508C23.4556 149.014 23.3045 149.483 22.905 149.916C22.281 150.527 21.3803 150.972 20.2027 151.251C19.0411 151.544 17.8636 151.63 16.67 151.507C15.4765 151.385 14.5363 151.037 13.8496 150.462ZM10.0268 147.512C9.49781 147.795 8.96945 147.901 8.44172 147.83C7.91399 147.758 7.49539 147.52 7.18594 147.116C6.9221 146.694 6.87282 146.233 7.03809 145.732C7.20459 145.263 7.54371 144.863 8.05544 144.534C8.58444 144.25 9.1128 144.144 9.64053 144.216C10.1831 144.271 10.6017 144.509 10.8963 144.93C11.1601 145.352 11.2094 145.813 11.0442 146.313C10.8777 146.783 10.5385 147.183 10.0268 147.512ZM11.6265 149.879C11.8915 150.332 11.9044 150.849 11.6652 151.429C11.4407 151.994 11.0048 152.482 10.3574 152.894C9.70881 153.275 9.07502 153.447 8.45604 153.41C7.85309 153.388 7.39627 153.159 7.08559 152.724C6.80449 152.256 6.77618 151.74 7.00064 151.176C7.23989 150.595 7.68321 150.099 8.33059 149.687C8.97919 149.306 9.61299 149.134 10.232 149.171C10.8349 149.193 11.2997 149.429 11.6265 149.879ZM17.7164 156.838C17.2886 156.562 17.018 156.163 16.9046 155.643C16.7912 155.123 16.8547 154.588 17.0952 154.038C17.3826 153.501 17.7537 153.131 18.2087 152.928C18.6946 152.723 19.1582 152.736 19.5996 152.965C20.0274 153.241 20.298 153.64 20.4114 154.16C20.5248 154.68 20.4613 155.215 20.2208 155.765C19.9335 156.302 19.5543 156.664 19.0832 156.853C18.5974 157.057 18.1418 157.053 17.7164 156.838ZM14.6317 152.654C15.0744 152.914 15.3388 153.351 15.4251 153.965C15.5113 154.579 15.3904 155.225 15.0624 155.902C14.7035 156.58 14.2516 157.053 13.7066 157.322C13.1467 157.607 12.6227 157.628 12.1344 157.385C11.6918 157.125 11.4274 156.688 11.3411 156.074C11.2548 155.459 11.3757 154.814 11.7038 154.137C12.0626 153.459 12.5146 152.985 13.0596 152.717C13.6194 152.432 14.1435 152.411 14.6317 152.654Z" fill="white"/>
</svg>
