<svg width="75" height="163" viewBox="0 0 75 163" fill="none" xmlns="http://www.w3.org/2000/svg">
<path d="M64.1857 12.621C64.874 13.1938 65.8151 13.5396 67.009 13.6585C68.2029 13.7775 69.3802 13.6886 70.5409 13.3921C71.7177 13.1103 72.6092 12.6555 73.2155 12.0275C73.9961 11.145 73.8388 10.1713 72.7435 9.10643C72.1034 8.57791 71.4618 8.19614 70.8188 7.9611C70.2535 7.73818 69.7465 7.43558 69.2979 7.05329C68.8627 6.62411 68.5174 6.12935 68.2619 5.56899C67.9582 4.96438 67.5239 4.37305 66.9588 3.79502C66.4125 3.29339 65.876 3.02292 65.3494 2.98362C64.8376 2.92826 64.3825 3.1175 63.9841 3.55135C63.4261 4.2236 63.0568 5.15798 62.8763 6.3545C62.6796 7.53627 62.6914 8.71687 62.9115 9.8963C63.1317 11.0757 63.5564 11.984 64.1857 12.621ZM67.4411 16.1876C67.2021 16.7382 67.14 17.2735 67.2548 17.7935C67.3696 18.3135 67.6413 18.7111 68.0699 18.9861C68.512 19.2143 68.9756 19.2254 69.4609 19.0195C69.9153 18.8148 70.2855 18.4439 70.5714 17.9068C70.8103 17.3562 70.8724 16.8209 70.7576 16.3009C70.6576 15.7648 70.3859 15.3672 69.9425 15.1082C69.5005 14.8801 69.0368 14.869 68.5516 15.0749C68.0971 15.2796 67.7269 15.6505 67.4411 16.1876ZM64.9497 14.7885C64.4769 14.5617 63.9609 14.5914 63.4019 14.8777C62.8576 15.1479 62.4069 15.6226 62.0499 16.3017C61.7237 16.9795 61.6046 17.6253 61.6925 18.2392C61.7644 18.8382 62.03 19.2746 62.4895 19.5484C62.9784 19.79 63.495 19.7757 64.0393 19.5054C64.5983 19.2191 65.0563 18.7364 65.4134 18.0573C65.7396 17.3795 65.8587 16.7337 65.7707 16.1199C65.6989 15.5208 65.4252 15.077 64.9497 14.7885ZM57.5129 9.29283C57.8235 9.69645 58.2427 9.93331 58.7707 10.0034C59.2986 10.0736 59.8267 9.96611 60.3549 9.68112C60.8657 9.35055 61.2037 8.95015 61.3689 8.47993C61.5328 7.97888 61.4823 7.51786 61.2173 7.09686C60.9068 6.69325 60.4875 6.45638 59.9596 6.38626C59.4317 6.31614 58.9036 6.42358 58.3754 6.70858C57.8645 7.03915 57.5346 7.44692 57.3854 7.9319C57.2215 8.43294 57.264 8.88659 57.5129 9.29283ZM61.9369 12.0222C61.6411 11.6025 61.1836 11.375 60.5646 11.3396C59.9455 11.3043 59.3122 11.4779 58.6646 11.8607C58.0183 12.2742 57.5838 12.7636 57.3608 13.329C57.1232 13.9103 57.1455 14.4343 57.4279 14.9009C57.7237 15.3206 58.1811 15.5481 58.8002 15.5835C59.4193 15.6188 60.0526 15.4451 60.7002 15.0624C61.3464 14.6489 61.781 14.1594 62.0039 13.5941C62.2416 13.0127 62.2192 12.4887 61.9369 12.0222Z" fill="white"/>
<path d="M65.1945 44.5971C65.8828 45.1699 66.8239 45.5157 68.0178 45.6346C69.2117 45.7535 70.389 45.6647 71.5497 45.3682C72.7265 45.0864 73.618 44.6315 74.2243 44.0035C75.0049 43.1211 74.8476 42.1474 73.7523 41.0825C73.1122 40.554 72.4706 40.1722 71.8276 39.9372C71.2623 39.7143 70.7553 39.4117 70.3067 39.0294C69.8715 38.6002 69.5262 38.1054 69.2707 37.5451C68.967 36.9404 68.5327 36.3491 67.9676 35.7711C67.4213 35.2695 66.8848 34.999 66.3582 34.9597C65.8464 34.9043 65.3913 35.0936 64.9929 35.5274C64.4349 36.1997 64.0656 37.1341 63.885 38.3306C63.6884 39.5123 63.7002 40.6929 63.9203 41.8724C64.1404 43.0518 64.5652 43.96 65.1945 44.5971ZM68.4499 48.1637C68.2109 48.7142 68.1488 49.2495 68.2636 49.7696C68.3784 50.2896 68.6501 50.6872 69.0787 50.9622C69.5207 51.1904 69.9844 51.2015 70.4697 50.9955C70.9241 50.7909 71.2943 50.42 71.5801 49.8829C71.8191 49.3323 71.8812 48.797 71.7664 48.277C71.6663 47.7409 71.3946 47.3433 70.9513 47.0843C70.5093 46.8561 70.0456 46.845 69.5603 47.051C69.1059 47.2556 68.7357 47.6265 68.4499 48.1637ZM65.9585 46.7646C65.4857 46.5377 64.9697 46.5675 64.4107 46.8538C63.8664 47.124 63.4157 47.5987 63.0587 48.2778C62.7325 48.9556 62.6134 49.6014 62.7013 50.2152C62.7732 50.8143 63.0388 51.2507 63.4982 51.5245C63.9872 51.7661 64.5038 51.7518 65.0481 51.4815C65.6071 51.1952 66.0651 50.7125 66.4221 50.0334C66.7483 49.3556 66.8675 48.7098 66.7795 48.096C66.7077 47.4969 66.434 47.0531 65.9585 46.7646ZM58.5217 41.2689C58.8323 41.6725 59.2515 41.9094 59.7794 41.9795C60.3074 42.0496 60.8354 41.9422 61.3637 41.6572C61.8745 41.3266 62.2125 40.9262 62.3777 40.456C62.5416 39.955 62.4911 39.4939 62.2261 39.0729C61.9156 38.6693 61.4963 38.4325 60.9684 38.3623C60.4405 38.2922 59.9124 38.3997 59.3842 38.6846C58.8733 39.0152 58.5433 39.423 58.3942 39.908C58.2303 40.409 58.2728 40.8627 58.5217 41.2689ZM62.9457 43.9982C62.6499 43.5786 62.1924 43.351 61.5733 43.3157C60.9543 43.2803 60.3209 43.454 59.6734 43.8367C59.0271 44.2503 58.5926 44.7397 58.3696 45.305C58.132 45.8864 58.1543 46.4104 58.4367 46.877C58.7325 47.2967 59.1899 47.5242 59.809 47.5595C60.4281 47.5949 61.0614 47.4212 61.709 47.0385C62.3552 46.6249 62.7898 46.1355 63.0127 45.5702C63.2504 44.9888 63.228 44.4648 62.9457 43.9982Z" fill="white"/>
<path d="M32.359 42.2438C33.0473 42.8166 33.9884 43.1624 35.1823 43.2813C36.3762 43.4003 37.5535 43.3115 38.7143 43.0149C39.8911 42.7331 40.7826 42.2783 41.3888 41.6503C42.1694 40.7678 42.0121 39.7941 40.9168 38.7292C40.2767 38.2007 39.6352 37.8189 38.9921 37.5839C38.4268 37.361 37.9198 37.0584 37.4712 36.6761C37.0361 36.2469 36.6907 35.7521 36.4353 35.1918C36.1316 34.5872 35.6972 33.9959 35.1322 33.4178C34.5859 32.9162 34.0494 32.6457 33.5228 32.6064C33.0109 32.5511 32.5558 32.7403 32.1575 33.1742C31.5994 33.8464 31.2302 34.7808 31.0496 35.9773C30.853 37.1591 30.8647 38.3397 31.0849 39.5191C31.305 40.6985 31.7297 41.6068 32.359 42.2438ZM35.6144 45.8104C35.3754 46.361 35.3133 46.8963 35.4282 47.4163C35.543 47.9363 35.8147 48.3339 36.2433 48.609C36.6853 48.8371 37.1489 48.8482 37.6342 48.6423C38.0887 48.4376 38.4588 48.0667 38.7447 47.5296C38.9837 46.979 39.0458 46.4437 38.931 45.9237C38.8309 45.3876 38.5592 44.99 38.1158 44.731C37.6738 44.5029 37.2102 44.4918 36.7249 44.6977C36.2704 44.9024 35.9003 45.2733 35.6144 45.8104ZM33.1231 44.4113C32.6502 44.1845 32.1343 44.2142 31.5752 44.5005C31.0309 44.7707 30.5803 45.2454 30.2233 45.9245C29.8971 46.6023 29.7779 47.2481 29.8659 47.862C29.9377 48.461 30.2034 48.8974 30.6628 49.1712C31.1517 49.4128 31.6683 49.3985 32.2126 49.1282C32.7717 48.8419 33.2297 48.3592 33.5867 47.6801C33.9129 47.0023 34.032 46.3565 33.9441 45.7427C33.8722 45.1436 33.5985 44.6998 33.1231 44.4113ZM25.6863 38.9156C25.9968 39.3192 26.4161 39.5561 26.944 39.6262C27.4719 39.6964 28 39.5889 28.5282 39.3039C29.039 38.9733 29.3771 38.573 29.5423 38.1027C29.7062 37.6017 29.6556 37.1407 29.3907 36.7197C29.0801 36.3161 28.6609 36.0792 28.1329 36.0091C27.605 35.9389 27.0769 36.0464 26.5487 36.3314C26.0379 36.6619 25.7079 37.0697 25.5587 37.5547C25.3948 38.0557 25.4374 38.5094 25.6863 38.9156ZM30.1102 41.645C29.8144 41.2253 29.357 40.9978 28.7379 40.9624C28.1188 40.9271 27.4855 41.1007 26.8379 41.4835C26.1917 41.897 25.7571 42.3864 25.5342 42.9518C25.2965 43.5331 25.3189 44.0571 25.6012 44.5237C25.897 44.9434 26.3545 45.1709 26.9736 45.2063C27.5926 45.2416 28.226 45.0679 28.8735 44.6852C29.5198 44.2717 29.9543 43.7822 30.1773 43.2169C30.4149 42.6355 30.3926 42.1115 30.1102 41.645Z" fill="white"/>
<path d="M38.6914 69.6765C39.4755 70.109 40.465 70.2709 41.6598 70.1622C42.8547 70.0535 43.9941 69.744 45.0779 69.2336C46.1803 68.7347 46.9699 68.1196 47.4466 67.3885C48.0466 66.3745 47.7082 65.448 46.4316 64.6091C45.7032 64.211 45.0011 63.9572 44.3252 63.8478C43.728 63.7357 43.173 63.5343 42.6603 63.2436C42.1519 62.9043 41.7193 62.4836 41.3626 61.9816C40.9502 61.4452 40.412 60.9465 39.748 60.4856C39.1168 60.0962 38.5389 59.9319 38.0143 59.9927C37.5012 60.035 37.0901 60.3068 36.7808 60.8081C36.3598 61.5736 36.1736 62.5609 36.2222 63.77C36.2523 64.9676 36.4867 66.1248 36.9256 67.2414C37.3645 68.358 37.9531 69.1697 38.6914 69.6765ZM42.5617 72.5642C42.431 73.1499 42.4711 73.6873 42.6821 74.1763C42.893 74.6653 43.2349 75.0044 43.7077 75.1936C44.1849 75.3342 44.6423 75.2576 45.0799 74.9637C45.4876 74.6769 45.781 74.2428 45.9603 73.6613C46.0911 73.0755 46.0509 72.5381 45.84 72.0491C45.6405 71.5416 45.2986 71.2025 44.8143 71.0319C44.3372 70.8913 43.8798 70.9679 43.4421 71.2618C43.0345 71.5486 42.741 71.9827 42.5617 72.5642ZM39.851 71.6607C39.3438 71.5272 38.8428 71.6539 38.3479 72.0406C37.8644 72.4087 37.5115 72.96 37.2891 73.6943C37.0968 74.4215 37.1018 75.0782 37.304 75.6643C37.4877 76.2391 37.831 76.6175 38.3338 76.7995C38.8596 76.9445 39.3642 76.8329 39.8477 76.4647C40.3426 76.078 40.7012 75.5175 40.9236 74.7831C41.1159 74.0559 41.1109 73.3993 40.9087 72.8131C40.725 72.2384 40.3724 71.8542 39.851 71.6607ZM31.5102 67.6682C31.8914 68.0059 32.3478 68.1594 32.8795 68.1286C33.4112 68.0977 33.9095 67.8925 34.3744 67.5129C34.8136 67.0918 35.0699 66.6348 35.1434 66.1418C35.2097 65.6188 35.073 65.1756 34.7333 64.8123C34.3521 64.4745 33.8957 64.3211 33.364 64.3519C32.8323 64.3828 32.3341 64.588 31.8692 64.9676C31.4299 65.3887 31.1829 65.8515 31.128 66.3559C31.0617 66.8789 31.1891 67.3163 31.5102 67.6682ZM36.37 69.5131C36.0002 69.1568 35.5081 69.0198 34.8935 69.1019C34.2788 69.1841 33.6897 69.4743 33.1261 69.9724C32.5695 70.5005 32.2352 71.0632 32.123 71.6605C31.9994 72.2763 32.1203 72.7866 32.4857 73.1915C32.8555 73.5477 33.3476 73.6848 33.9622 73.6026C34.5769 73.5204 35.166 73.2303 35.7296 72.7321C36.2862 72.204 36.6205 71.6413 36.7327 71.0441C36.8563 70.4283 36.7354 69.9179 36.37 69.5131Z" fill="white"/>
<path d="M9.67505 80.688C10.5639 80.7963 11.5423 80.5769 12.6101 80.0298C13.6778 79.4827 14.6191 78.77 15.4339 77.8917C16.2702 77.0171 16.7729 76.1517 16.942 75.2953C17.1198 74.1306 16.4598 73.3976 14.9622 73.0963C14.1378 72.9991 13.3917 73.0259 12.724 73.1769C12.1281 73.2959 11.538 73.3164 10.9538 73.2383C10.3555 73.1134 9.79714 72.8848 9.27873 72.5523C8.69582 72.2088 8.01031 71.9473 7.22219 71.7677C6.49118 71.6422 5.89375 71.7057 5.42989 71.9581C4.96972 72.1889 4.68982 72.5946 4.59017 73.1751C4.48555 74.0425 4.68161 75.0279 5.17835 76.1313C5.65359 77.231 6.30332 78.2169 7.12754 79.0887C7.95175 79.9606 8.80092 80.4937 9.67505 80.688ZM14.3439 81.921C14.4414 82.5133 14.6793 82.9968 15.0577 83.3716C15.436 83.7464 15.8798 83.9332 16.3891 83.9321C16.8842 83.8843 17.2799 83.6424 17.5761 83.2063C17.8471 82.788 17.9572 82.2757 17.9063 81.6693C17.8087 81.0771 17.5708 80.5936 17.1925 80.2188C16.8178 79.8225 16.374 79.6356 15.8611 79.6582C15.3659 79.7061 14.9703 79.948 14.6741 80.3841C14.4031 80.8024 14.293 81.3147 14.3439 81.921ZM11.4919 82.0955C10.9715 82.1611 10.554 82.4657 10.2394 83.0093C9.92845 83.5314 9.80698 84.1746 9.87501 84.9388C9.96822 85.6852 10.2181 86.2925 10.6247 86.7607C11.0098 87.2252 11.4695 87.448 12.004 87.4291C12.5458 87.3671 12.9722 87.0751 13.2832 86.553C13.5978 86.0094 13.7211 85.3555 13.6531 84.5913C13.5599 83.8449 13.31 83.2376 12.9034 82.7694C12.5183 82.3049 12.0478 82.0803 11.4919 82.0955ZM2.26351 81.5075C2.74325 81.6783 3.22396 81.6502 3.70563 81.423C4.18729 81.1958 4.57286 80.8193 4.86231 80.2935C5.11245 79.7389 5.17953 79.2192 5.06353 78.7344C4.92972 78.2245 4.63738 77.8645 4.18652 77.6543C3.70678 77.4834 3.22608 77.5116 2.74441 77.7388C2.26274 77.966 1.87718 78.3424 1.58773 78.8682C1.33758 79.4229 1.28126 79.9444 1.41876 80.4328C1.55257 80.9428 1.83415 81.301 2.26351 81.5075ZM7.46061 81.4035C6.98456 81.2112 6.47682 81.2679 5.93738 81.5737C5.39795 81.8795 4.95984 82.3687 4.62306 83.0413C4.30408 83.7391 4.20411 84.3859 4.32316 84.9818C4.43852 85.5992 4.74128 86.0275 5.23145 86.2666C5.7075 86.4589 6.21524 86.4022 6.75467 86.0964C7.2941 85.7906 7.73221 85.3014 8.069 84.6288C8.38798 83.931 8.48794 83.2842 8.36889 82.6883C8.25354 82.0708 7.95077 81.6426 7.46061 81.4035Z" fill="white"/>
<path d="M31.3452 95.4327C32.2341 95.541 33.2124 95.3216 34.2802 94.7744C35.348 94.2273 36.2893 93.5146 37.1041 92.6363C37.9403 91.7617 38.443 90.8963 38.6121 90.04C38.7899 88.8753 38.13 88.1423 36.6324 87.8409C35.808 87.7437 35.0619 87.7705 34.3941 87.9215C33.7982 88.0406 33.2082 88.061 32.624 87.9829C32.0257 87.858 31.4673 87.6294 30.9489 87.2969C30.366 86.9534 29.6805 86.6919 28.8924 86.5123C28.1613 86.3869 27.5639 86.4503 27.1001 86.7027C26.6399 86.9336 26.36 87.3393 26.2603 87.9198C26.1557 88.7872 26.3518 89.7725 26.8485 90.876C27.3238 91.9757 27.9735 92.9615 28.7977 93.8334C29.6219 94.7053 30.4711 95.2383 31.3452 95.4327ZM36.014 96.6657C36.1116 97.2579 36.3495 97.7414 36.7278 98.1162C37.1062 98.491 37.55 98.6779 38.0592 98.6768C38.5544 98.6289 38.9501 98.387 39.2462 97.9509C39.5172 97.5326 39.6273 97.0203 39.5765 96.414C39.4789 95.8217 39.241 95.3382 38.8626 94.9634C38.488 94.5671 38.0442 94.3803 37.5312 94.4029C37.0361 94.4507 36.6404 94.6926 36.3442 95.1287C36.0732 95.547 35.9632 96.0593 36.014 96.6657ZM33.162 96.8401C32.6417 96.9058 32.2242 97.2104 31.9096 97.754C31.5986 98.2761 31.4771 98.9192 31.5452 99.6834C31.6384 100.43 31.8883 101.037 32.2949 101.505C32.6799 101.97 33.1397 102.193 33.6741 102.174C34.216 102.112 34.6424 101.82 34.9533 101.298C35.268 100.754 35.3913 100.1 35.3233 99.3359C35.23 98.5895 34.9802 97.9822 34.5736 97.514C34.1885 97.0495 33.718 96.8249 33.162 96.8401ZM23.9337 96.2521C24.4134 96.423 24.8941 96.3948 25.3758 96.1676C25.8575 95.9404 26.243 95.5639 26.5325 95.0382C26.7826 94.4835 26.8497 93.9638 26.7337 93.4791C26.5999 92.9692 26.3075 92.6091 25.8567 92.3989C25.377 92.228 24.8962 92.2562 24.4146 92.4834C23.9329 92.7106 23.5473 93.0871 23.2579 93.6129C23.0077 94.1675 22.9514 94.6891 23.0889 95.1775C23.2227 95.6874 23.5043 96.0456 23.9337 96.2521ZM29.1308 96.1482C28.6547 95.9558 28.147 96.0125 27.6076 96.3183C27.0681 96.6241 26.63 97.1133 26.2932 97.7859C25.9742 98.4837 25.8743 99.1306 25.9933 99.7265C26.1087 100.344 26.4114 100.772 26.9016 101.011C27.3777 101.204 27.8854 101.147 28.4248 100.841C28.9643 100.535 29.4024 100.046 29.7392 99.3734C30.0581 98.6756 30.1581 98.0288 30.0391 97.4329C29.9237 96.8155 29.6209 96.3872 29.1308 96.1482Z" fill="white"/>
<path d="M11.487 119.825C12.3492 119.584 13.1682 119.005 13.9437 118.09C14.7193 117.174 15.3145 116.155 15.7292 115.031C16.1652 113.902 16.2967 112.91 16.1238 112.054C15.8404 110.911 14.9495 110.488 13.4511 110.785C12.6526 111.012 11.9741 111.323 11.4156 111.719C10.9112 112.058 10.3743 112.304 9.80495 112.456C9.20461 112.571 8.60126 112.574 7.9949 112.467C7.32474 112.373 6.59136 112.395 5.79475 112.532C5.07166 112.697 4.54447 112.986 4.21321 113.397C3.87708 113.787 3.77455 114.269 3.90562 114.843C4.14233 115.684 4.70198 116.519 5.58458 117.346C6.4459 118.179 7.42455 118.84 8.52051 119.328C9.61648 119.816 10.6053 119.982 11.487 119.825ZM16.2711 119.17C16.5888 119.679 16.9942 120.034 17.4875 120.235C17.9808 120.435 18.4624 120.437 18.9321 120.24C19.3709 120.006 19.6432 119.631 19.7491 119.114C19.8385 118.624 19.7433 118.109 19.4634 117.568C19.1457 117.059 18.7403 116.704 18.247 116.504C17.7488 116.282 17.2673 116.28 16.8024 116.498C16.3636 116.732 16.0913 117.107 15.9854 117.624C15.896 118.114 15.9912 118.629 16.2711 119.17ZM13.7052 120.427C13.25 120.687 12.9816 121.129 12.9 121.752C12.8135 122.353 12.9485 122.994 13.305 123.673C13.6778 124.326 14.1419 124.791 14.6972 125.067C15.2312 125.348 15.7412 125.377 16.2274 125.154C16.7038 124.889 16.9853 124.455 17.0717 123.854C17.1534 123.231 17.0159 122.58 16.6595 121.9C16.2866 121.247 15.8225 120.782 15.2673 120.506C14.7333 120.226 14.2126 120.199 13.7052 120.427ZM4.95932 123.43C5.46789 123.403 5.90087 123.193 6.25826 122.798C6.61566 122.403 6.82695 121.907 6.89214 121.31C6.90995 120.702 6.77218 120.197 6.47883 119.794C6.15936 119.374 5.75112 119.154 5.2541 119.134C4.74553 119.16 4.31255 119.371 3.95516 119.766C3.59777 120.16 3.38648 120.656 3.32128 121.253C3.30348 121.861 3.45188 122.364 3.7665 122.762C4.08597 123.182 4.48358 123.404 4.95932 123.43ZM9.71749 121.337C9.20406 121.342 8.75709 121.59 8.37659 122.079C7.99608 122.569 7.77958 123.189 7.7271 123.939C7.70074 124.706 7.857 125.342 8.19589 125.846C8.53963 126.372 8.98371 126.651 9.52811 126.683C10.0415 126.678 10.4885 126.43 10.869 125.941C11.2495 125.451 11.466 124.831 11.5185 124.081C11.5449 123.314 11.3886 122.678 11.0497 122.174C10.706 121.648 10.2619 121.369 9.71749 121.337Z" fill="white"/>
<path d="M36.9417 125.623C37.6981 125.144 38.3162 124.354 38.7959 123.255C39.2757 122.155 39.5526 121.007 39.6268 119.811C39.7199 118.605 39.5608 117.617 39.1492 116.847C38.5491 115.833 37.5741 115.684 36.2244 116.399C35.5249 116.846 34.9645 117.34 34.5434 117.88C34.1577 118.349 33.7141 118.739 33.2125 119.048C32.6704 119.331 32.0935 119.507 31.4818 119.578C30.8131 119.682 30.117 119.914 29.3934 120.274C28.7483 120.64 28.3262 121.067 28.1271 121.556C27.9172 122.027 27.9576 122.518 28.2482 123.03C28.7166 123.768 29.4925 124.406 30.5758 124.945C31.6401 125.495 32.7673 125.846 33.9573 125.999C35.1474 126.152 36.1422 126.026 36.9417 125.623ZM41.3355 123.62C41.7861 124.016 42.2765 124.24 42.8066 124.29C43.3368 124.341 43.7986 124.204 44.1919 123.881C44.5448 123.53 44.6977 123.092 44.6507 122.567C44.5955 122.072 44.3562 121.606 43.9327 121.169C43.4821 120.772 42.9918 120.549 42.4616 120.498C41.9207 120.429 41.4589 120.565 41.0763 120.908C40.7234 121.259 40.5705 121.696 40.6175 122.221C40.6727 122.717 40.9121 123.183 41.3355 123.62ZM39.239 125.561C38.878 125.942 38.7478 126.442 38.8487 127.062C38.9387 127.663 39.2521 128.237 39.7888 128.786C40.3337 129.304 40.9118 129.616 41.5229 129.721C42.1151 129.836 42.612 129.717 43.0136 129.364C43.3937 128.973 43.5387 128.477 43.4486 127.876C43.3478 127.256 43.029 126.672 42.4923 126.124C41.9474 125.605 41.3694 125.294 40.7582 125.189C40.166 125.073 39.6596 125.197 39.239 125.561ZM31.7255 130.952C32.2049 130.78 32.5591 130.454 32.7879 129.973C33.0167 129.492 33.0766 128.956 32.9676 128.366C32.8098 127.778 32.5325 127.334 32.1357 127.032C31.7092 126.722 31.255 126.629 30.7729 126.752C30.2935 126.924 29.9393 127.25 29.7105 127.731C29.4817 128.212 29.4218 128.747 29.5308 129.337C29.6886 129.925 29.9753 130.364 30.3911 130.655C30.8176 130.965 31.2624 131.064 31.7255 130.952ZM35.6813 127.579C35.191 127.732 34.8341 128.097 34.6103 128.676C34.3866 129.254 34.3574 129.91 34.5229 130.644C34.718 131.386 35.0504 131.95 35.5199 132.336C36.0003 132.74 36.5058 132.88 37.0365 132.754C37.5268 132.602 37.8837 132.236 38.1075 131.658C38.3312 131.08 38.3603 130.424 38.1949 129.69C37.9998 128.948 37.6674 128.384 37.1979 127.998C36.7175 127.593 36.212 127.454 35.6813 127.579Z" fill="white"/>
<path d="M30.8023 150.267C31.4298 149.628 31.8521 148.719 32.069 147.539C32.2859 146.359 32.2944 145.178 32.0946 143.997C31.9108 142.801 31.5309 141.875 30.955 141.219C30.1399 140.368 29.1566 140.445 28.005 141.449C27.4256 142.043 26.9922 142.651 26.705 143.272C26.4362 143.817 26.0928 144.298 25.6749 144.713C25.2113 145.111 24.6897 145.415 24.1102 145.623C23.4827 145.876 22.8575 146.26 22.2349 146.776C21.6899 147.279 21.3762 147.791 21.2936 148.313C21.1962 148.818 21.3473 149.287 21.7469 149.72C22.3708 150.332 23.2716 150.777 24.4492 151.055C25.6107 151.349 26.7883 151.434 27.9818 151.312C29.1754 151.19 30.1155 150.842 30.8023 150.267ZM34.6251 147.317C35.154 147.6 35.6824 147.706 36.2101 147.635C36.7379 147.563 37.1565 147.325 37.4659 146.921C37.7298 146.499 37.779 146.038 37.6138 145.537C37.4473 145.067 37.1081 144.668 36.5964 144.339C36.0674 144.055 35.5391 143.949 35.0113 144.021C34.4688 144.076 34.0502 144.314 33.7555 144.735C33.4917 145.156 33.4424 145.618 33.6077 146.118C33.7742 146.588 34.1133 146.987 34.6251 147.317ZM33.0254 149.684C32.7603 150.137 32.7474 150.653 32.9867 151.234C33.2111 151.799 33.6471 152.287 34.2944 152.699C34.943 153.08 35.5768 153.252 36.1958 153.215C36.7988 153.192 37.2556 152.964 37.5663 152.528C37.8474 152.061 37.8757 151.545 37.6512 150.98C37.412 150.4 36.9686 149.903 36.3213 149.491C35.6727 149.111 35.0389 148.939 34.4199 148.976C33.8169 148.998 33.3521 149.234 33.0254 149.684ZM26.9354 156.643C27.3633 156.366 27.6339 155.968 27.7473 155.448C27.8607 154.927 27.7971 154.392 27.5566 153.842C27.2693 153.306 26.8981 152.936 26.4431 152.733C25.9573 152.528 25.4937 152.54 25.0523 152.77C24.6244 153.046 24.3538 153.444 24.2404 153.965C24.127 154.485 24.1906 155.02 24.4311 155.57C24.7184 156.106 25.0976 156.469 25.5686 156.658C26.0545 156.862 26.5101 156.857 26.9354 156.643ZM30.0201 152.459C29.5775 152.719 29.313 153.156 29.2268 153.77C29.1405 154.384 29.2614 155.03 29.5895 155.707C29.9483 156.385 30.4003 156.858 30.9453 157.127C31.5051 157.412 32.0291 157.433 32.5174 157.19C32.96 156.929 33.2245 156.492 33.3108 155.878C33.397 155.264 33.2761 154.619 32.9481 153.942C32.5892 153.264 32.1373 152.79 31.5922 152.521C31.0324 152.237 30.5084 152.216 30.0201 152.459Z" fill="white"/>
<path d="M62.668 150.61C63.2956 149.971 63.7178 149.062 63.9347 147.882C64.1516 146.702 64.1602 145.521 63.9603 144.34C63.7765 143.144 63.3966 142.218 62.8208 141.562C62.0057 140.711 61.0223 140.788 59.8708 141.792C59.2913 142.386 58.8579 142.994 58.5707 143.616C58.3019 144.161 57.9586 144.641 57.5406 145.056C57.077 145.455 56.5555 145.758 55.976 145.967C55.3484 146.219 54.7233 146.603 54.1006 147.119C53.5557 147.622 53.2419 148.134 53.1593 148.656C53.062 149.162 53.2131 149.631 53.6126 150.063C54.2366 150.675 55.1373 151.12 56.3149 151.399C57.4764 151.692 58.654 151.778 59.8475 151.655C61.0411 151.533 61.9813 151.185 62.668 150.61ZM66.4908 147.66C67.0198 147.943 67.5481 148.049 68.0759 147.978C68.6036 147.906 69.0222 147.668 69.3316 147.264C69.5955 146.842 69.6448 146.381 69.4795 145.88C69.313 145.411 68.9739 145.011 68.4621 144.682C67.9331 144.398 67.4048 144.292 66.877 144.364C66.3345 144.419 65.9159 144.657 65.6213 145.078C65.3574 145.5 65.3082 145.961 65.4734 146.461C65.6399 146.931 65.979 147.331 66.4908 147.66ZM64.8911 150.027C64.6261 150.48 64.6132 150.997 64.8524 151.577C65.0769 152.142 65.5128 152.63 66.1602 153.042C66.8088 153.423 67.4426 153.595 68.0615 153.558C68.6645 153.536 69.1213 153.307 69.432 152.872C69.7131 152.404 69.7414 151.888 69.5169 151.324C69.2777 150.743 68.8344 150.247 68.187 149.835C67.5384 149.454 66.9046 149.282 66.2856 149.319C65.6827 149.341 65.2178 149.577 64.8911 150.027ZM58.8012 156.986C59.229 156.71 59.4996 156.311 59.613 155.791C59.7264 155.271 59.6629 154.736 59.4224 154.186C59.135 153.649 58.7639 153.279 58.3088 153.076C57.823 152.871 57.3594 152.884 56.918 153.113C56.4902 153.389 56.2195 153.788 56.1061 154.308C55.9927 154.828 56.0563 155.363 56.2968 155.913C56.5841 156.45 56.9633 156.812 57.4343 157.001C57.9202 157.205 58.3758 157.2 58.8012 156.986ZM61.8858 152.802C61.4432 153.062 61.1788 153.499 61.0925 154.113C61.0062 154.727 61.1271 155.373 61.4552 156.05C61.814 156.728 62.266 157.201 62.811 157.47C63.3708 157.755 63.8949 157.776 64.3831 157.533C64.8258 157.273 65.0902 156.836 65.1765 156.221C65.2627 155.607 65.1418 154.962 64.8138 154.285C64.4549 153.607 64.003 153.133 63.458 152.865C62.8981 152.58 62.3741 152.559 61.8858 152.802Z" fill="white"/>
</svg>
