<svg width="121" height="253" viewBox="0 0 121 253" fill="none" xmlns="http://www.w3.org/2000/svg">
<path d="M20.8634 19.7808C19.7952 20.6697 18.3347 21.2064 16.4819 21.391C14.629 21.5755 12.802 21.4377 11.0006 20.9775C9.17432 20.5402 7.79077 19.8342 6.84997 18.8597C5.63848 17.4902 5.88263 15.9791 7.58241 14.3265C8.5758 13.5063 9.57147 12.9138 10.5694 12.549C11.4467 12.2031 12.2335 11.7335 12.9297 11.1402C13.605 10.4742 14.1409 9.70632 14.5374 8.8367C15.0087 7.89839 15.6828 6.98071 16.5597 6.08366C17.4075 5.30517 18.2401 4.88543 19.0573 4.82445C19.8517 4.73852 20.558 5.03221 21.1762 5.7055C22.0422 6.74877 22.6153 8.19885 22.8955 10.0557C23.2006 11.8897 23.1824 13.7219 22.8407 15.5523C22.4991 17.3827 21.84 18.7922 20.8634 19.7808ZM15.8113 25.3158C16.1822 26.1702 16.2785 27.001 16.1003 27.808C15.9222 28.6151 15.5005 29.232 14.8354 29.6589C14.1494 30.013 13.4298 30.0302 12.6767 29.7106C11.9715 29.393 11.397 28.8174 10.9534 27.9838C10.5825 27.1294 10.4861 26.2987 10.6643 25.4916C10.8196 24.6596 11.2413 24.0427 11.9293 23.6407C12.6153 23.2866 13.3348 23.2694 14.0879 23.589C14.7932 23.9066 15.3676 24.4822 15.8113 25.3158ZM19.6776 23.1446C20.4115 22.7925 21.2122 22.8386 22.0797 23.283C22.9244 23.7024 23.6238 24.439 24.1779 25.4929C24.6841 26.5448 24.869 27.547 24.7325 28.4996C24.621 29.4293 24.2087 30.1066 23.4957 30.5314C22.737 30.9064 21.9353 30.8842 21.0906 30.4648C20.223 30.0205 19.5122 29.2713 18.9581 28.2174C18.4519 27.1655 18.267 26.1633 18.4035 25.2107C18.515 24.281 18.9397 23.5923 19.6776 23.1446ZM31.2189 14.6158C30.7369 15.2421 30.0863 15.6097 29.267 15.7185C28.4477 15.8274 27.6282 15.6606 26.8084 15.2183C26.0157 14.7053 25.4911 14.0839 25.2347 13.3542C24.9803 12.5766 25.0588 11.8612 25.47 11.2078C25.9519 10.5814 26.6026 10.2138 27.4219 10.105C28.2412 9.99621 29.0607 10.1629 29.8804 10.6052C30.6732 11.1182 31.1853 11.7511 31.4168 12.5037C31.6711 13.2813 31.6052 13.9853 31.2189 14.6158ZM24.3533 18.8514C24.8124 18.2001 25.5223 17.847 26.483 17.7922C27.4438 17.7373 28.4266 18.0069 29.4316 18.6008C30.4345 19.2426 31.1089 20.0021 31.4549 20.8795C31.8237 21.7817 31.789 22.5949 31.3508 23.319C30.8918 23.9703 30.1819 24.3234 29.2211 24.3782C28.2604 24.4331 27.2775 24.1636 26.2726 23.5696C25.2696 22.9278 24.5952 22.1683 24.2493 21.2909C23.8804 20.3887 23.9151 19.5755 24.3533 18.8514Z" fill="#ffffff"/>
<path d="M19.2982 69.4049C18.23 70.2938 16.7695 70.8305 14.9167 71.015C13.0639 71.1996 11.2368 71.0618 9.43542 70.6016C7.60913 70.1643 6.22559 69.4583 5.28478 68.4838C4.07329 67.1143 4.31744 65.6032 6.01723 63.9506C7.01062 63.1304 8.00628 62.5379 9.00421 62.1731C9.88153 61.8272 10.6683 61.3576 11.3645 60.7643C12.0398 60.0982 12.5757 59.3304 12.9722 58.4608C13.4435 57.5225 14.1176 56.6048 14.9945 55.7077C15.8423 54.9293 16.6749 54.5095 17.4921 54.4485C18.2865 54.3626 18.9928 54.6563 19.611 55.3296C20.477 56.3729 21.0501 57.8229 21.3303 59.6798C21.6354 61.5138 21.6172 63.346 21.2756 65.1764C20.9339 67.0067 20.2748 68.4162 19.2982 69.4049ZM14.2461 74.9399C14.617 75.7943 14.7133 76.625 14.5352 77.4321C14.357 78.2391 13.9353 78.8561 13.2702 79.283C12.5842 79.6371 11.8647 79.6543 11.1116 79.3347C10.4063 79.0171 9.83184 78.4415 9.38819 77.6079C9.0173 76.7535 8.92095 75.9228 9.09914 75.1157C9.25442 74.2837 9.67608 73.6668 10.3641 73.2648C11.0501 72.9107 11.7696 72.8935 12.5227 73.2131C13.228 73.5307 13.8025 74.1063 14.2461 74.9399ZM18.1125 72.7687C18.8463 72.4166 19.647 72.4627 20.5146 72.907C21.3592 73.3264 22.0586 74.0631 22.6127 75.117C23.1189 76.1689 23.3038 77.1711 23.1673 78.1237C23.0558 79.0534 22.6435 79.7307 21.9306 80.1555C21.1718 80.5305 20.3701 80.5083 19.5254 80.0889C18.6578 79.6446 17.947 78.8954 17.3929 77.8415C16.8867 76.7896 16.7018 75.7874 16.8383 74.8348C16.9498 73.9051 17.3746 73.2164 18.1125 72.7687ZM29.6537 64.2398C29.1717 64.8662 28.5211 65.2338 27.7018 65.3426C26.8825 65.4514 26.063 65.2847 25.2432 64.8424C24.4505 64.3294 23.9259 63.708 23.6695 62.9783C23.4151 62.2007 23.4936 61.4852 23.9048 60.8319C24.3868 60.2055 25.0374 59.8379 25.8567 59.7291C26.676 59.6203 27.4955 59.787 28.3152 60.2293C29.108 60.7423 29.6201 61.3752 29.8516 62.1278C30.1059 62.9054 30.04 63.6094 29.6537 64.2398ZM22.7881 68.4755C23.2472 67.8242 23.9571 67.4711 24.9178 67.4163C25.8786 67.3614 26.8614 67.6309 27.8664 68.2249C28.8693 68.8667 29.5438 69.6262 29.8897 70.5035C30.2585 71.4058 30.2239 72.219 29.7857 72.9431C29.3266 73.5944 28.6167 73.9474 27.6559 74.0023C26.6952 74.0572 25.7123 73.7876 24.7074 73.1937C23.7044 72.5519 23.03 71.7924 22.6841 70.915C22.3152 70.0128 22.3499 69.1996 22.7881 68.4755Z" fill="#ffffff"/>
<path d="M70.2556 65.7526C69.1874 66.6415 67.7269 67.1782 65.8741 67.3628C64.0213 67.5473 62.1942 67.4095 60.3928 66.9493C58.5665 66.512 57.183 65.8061 56.2422 64.8315C55.0307 63.462 55.2748 61.9509 56.9746 60.2983C57.968 59.4781 58.9637 58.8856 59.9616 58.5208C60.8389 58.1749 61.6257 57.7053 62.3219 57.112C62.9972 56.446 63.5331 55.6781 63.9296 54.8085C64.4009 53.8702 65.075 52.9525 65.9519 52.0555C66.7997 51.277 67.6323 50.8572 68.4495 50.7963C69.2439 50.7103 69.9502 51.004 70.5684 51.6773C71.4344 52.7206 72.0075 54.1707 72.2877 56.0276C72.5928 57.8616 72.5746 59.6937 72.233 61.5241C71.8913 63.3545 71.2322 64.764 70.2556 65.7526ZM65.2035 71.2876C65.5744 72.142 65.6707 72.9728 65.4926 73.7798C65.3144 74.5869 64.8927 75.2038 64.2276 75.6307C63.5416 75.9848 62.8221 76.0021 62.069 75.6824C61.3637 75.3648 60.7892 74.7892 60.3456 73.9557C59.9747 73.1012 59.8784 72.2705 60.0565 71.4634C60.2118 70.6315 60.6335 70.0145 61.3215 69.6126C62.0075 69.2584 62.727 69.2412 63.4801 69.5609C64.1854 69.8785 64.7599 70.454 65.2035 71.2876ZM69.0699 69.1164C69.8037 68.7643 70.6044 68.8105 71.472 69.2548C72.3166 69.6742 73.016 70.4108 73.5701 71.4647C74.0763 72.5166 74.2612 73.5189 74.1247 74.4715C74.0132 75.4011 73.6009 76.0784 72.888 76.5033C72.1292 76.8782 71.3275 76.856 70.4828 76.4366C69.6152 75.9923 68.9044 75.2432 68.3503 74.1892C67.8441 73.1374 67.6592 72.1351 67.7957 71.1825C67.9072 70.2528 68.332 69.5641 69.0699 69.1164ZM80.6111 60.5876C80.1291 61.2139 79.4785 61.5815 78.6592 61.6904C77.8399 61.7992 77.0204 61.6324 76.2006 61.1902C75.4079 60.6771 74.8833 60.0558 74.6269 59.326C74.3725 58.5484 74.451 57.833 74.8622 57.1796C75.3442 56.5533 75.9948 56.1857 76.8141 56.0768C77.6334 55.968 78.4529 56.1348 79.2726 56.577C80.0654 57.0901 80.5775 57.7229 80.809 58.4755C81.0633 59.2531 80.9974 59.9571 80.6111 60.5876ZM73.7455 64.8233C74.2046 64.1719 74.9145 63.8189 75.8752 63.764C76.836 63.7091 77.8188 63.9787 78.8238 64.5726C79.8267 65.2144 80.5011 65.9739 80.8471 66.8513C81.2159 67.7535 81.1813 68.5667 80.7431 69.2908C80.284 69.9421 79.5741 70.2952 78.6133 70.35C77.6526 70.4049 76.6697 70.1354 75.6648 69.5414C74.6618 68.8996 73.9874 68.1401 73.6415 67.2628C73.2726 66.3605 73.3073 65.5473 73.7455 64.8233Z" fill="#ffffff"/>
<path d="M60.5024 108.512C59.2856 109.183 57.75 109.434 55.8957 109.265C54.0414 109.097 52.2732 108.616 50.5911 107.824C48.8803 107.05 47.6549 106.095 46.9151 104.961C45.984 103.387 46.5091 101.949 48.4904 100.647C49.6208 100.03 50.7104 99.6358 51.7593 99.466C52.6861 99.292 53.5474 98.9794 54.3431 98.5282C55.1321 98.0017 55.8033 97.3489 56.3569 96.5698C56.9969 95.7374 57.8322 94.9635 58.8627 94.2482C59.8423 93.6438 60.7391 93.3888 61.5532 93.4833C62.3495 93.5489 62.9876 93.9707 63.4675 94.7486C64.1209 95.9366 64.4099 97.4688 64.3344 99.3452C64.2877 101.204 63.9238 103 63.2427 104.733C62.5616 106.465 61.6482 107.725 60.5024 108.512ZM54.496 112.993C54.6989 113.902 54.6366 114.736 54.3093 115.495C53.9819 116.254 53.4513 116.78 52.7175 117.074C51.977 117.292 51.2672 117.173 50.588 116.717C49.9554 116.272 49.5 115.598 49.2217 114.696C49.0188 113.787 49.0811 112.953 49.4085 112.194C49.7181 111.406 50.2486 110.88 51.0002 110.615C51.7407 110.397 52.4506 110.516 53.1297 110.972C53.7623 111.417 54.2178 112.091 54.496 112.993ZM58.7028 111.591C59.4899 111.384 60.2675 111.58 61.0356 112.18C61.7859 112.752 62.3336 113.607 62.6786 114.747C62.9771 115.875 62.9694 116.894 62.6555 117.804C62.3704 118.696 61.8377 119.283 61.0573 119.566C60.2414 119.791 59.4583 119.618 58.708 119.046C57.94 118.446 57.3834 117.576 57.0383 116.437C56.7398 115.308 56.7475 114.289 57.0614 113.379C57.3465 112.487 57.8937 111.891 58.7028 111.591ZM71.647 105.395C71.0554 105.919 70.3471 106.157 69.522 106.109C68.6969 106.061 67.9236 105.743 67.2021 105.154C66.5205 104.5 66.1227 103.791 66.0087 103.026C65.9057 102.214 66.1178 101.527 66.6451 100.963C67.2366 100.439 67.945 100.201 68.7701 100.248C69.5952 100.296 70.3684 100.615 71.0899 101.204C71.7716 101.857 72.155 102.575 72.2401 103.358C72.3431 104.17 72.1454 104.849 71.647 105.395ZM64.1051 108.258C64.6789 107.705 65.4427 107.492 66.3965 107.62C67.3503 107.747 68.2646 108.198 69.1393 108.971C70.003 109.79 70.5219 110.664 70.6959 111.591C70.8877 112.546 70.7001 113.338 70.1331 113.966C69.5593 114.519 68.7955 114.732 67.8416 114.605C66.8878 114.477 65.9735 114.027 65.0988 113.254C64.2351 112.434 63.7163 111.561 63.5422 110.634C63.3504 109.678 63.538 108.886 64.1051 108.258Z" fill="#ffffff"/>
<path d="M105.571 126C104.191 126.168 102.673 125.828 101.016 124.979C99.3588 124.13 97.898 123.024 96.6336 121.66C95.3358 120.303 94.5556 118.96 94.2932 117.631C94.0173 115.824 95.0414 114.686 97.3656 114.218C98.6449 114.068 99.8028 114.109 100.839 114.344C101.764 114.528 102.68 114.56 103.586 114.439C104.515 114.245 105.381 113.89 106.186 113.374C107.09 112.841 108.154 112.435 109.377 112.157C110.512 111.962 111.439 112.06 112.159 112.452C112.873 112.81 113.307 113.44 113.462 114.341C113.624 115.687 113.32 117.216 112.549 118.929C111.812 120.635 110.803 122.165 109.524 123.518C108.245 124.871 106.927 125.699 105.571 126ZM98.3252 127.914C98.1738 128.833 97.8046 129.583 97.2174 130.165C96.6303 130.746 95.9416 131.036 95.1512 131.035C94.3828 130.96 93.7688 130.585 93.3091 129.908C92.8885 129.259 92.7177 128.464 92.7966 127.523C92.948 126.604 93.3173 125.854 93.9044 125.272C94.4858 124.657 95.1746 124.367 95.9706 124.402C96.7391 124.476 97.3531 124.852 97.8128 125.528C98.2333 126.178 98.4042 126.973 98.3252 127.914ZM102.751 128.184C103.559 128.286 104.207 128.759 104.695 129.603C105.178 130.413 105.366 131.411 105.26 132.597C105.116 133.755 104.728 134.698 104.097 135.424C103.499 136.145 102.786 136.491 101.956 136.462C101.116 136.366 100.454 135.912 99.9713 135.102C99.483 134.258 99.2916 133.244 99.3972 132.058C99.5419 130.899 99.9297 129.957 100.561 129.23C101.158 128.509 101.888 128.161 102.751 128.184ZM117.073 127.272C116.328 127.537 115.582 127.493 114.835 127.141C114.087 126.788 113.489 126.204 113.04 125.388C112.652 124.527 112.547 123.721 112.727 122.968C112.935 122.177 113.389 121.618 114.088 121.292C114.833 121.027 115.579 121.071 116.326 121.423C117.074 121.776 117.672 122.36 118.122 123.176C118.51 124.037 118.597 124.846 118.384 125.604C118.176 126.395 117.739 126.951 117.073 127.272ZM109.007 127.111C109.746 126.812 110.534 126.9 111.371 127.375C112.208 127.849 112.888 128.608 113.411 129.652C113.906 130.735 114.061 131.739 113.876 132.664C113.697 133.622 113.228 134.286 112.467 134.657C111.728 134.956 110.94 134.868 110.103 134.393C109.266 133.919 108.586 133.16 108.063 132.116C107.568 131.033 107.413 130.029 107.598 129.104C107.777 128.146 108.247 127.482 109.007 127.111Z" fill="#ffffff"/>
<path d="M71.9405 148.882C70.5611 149.05 69.0428 148.71 67.3857 147.861C65.7285 147.012 64.2678 145.906 63.0033 144.543C61.7055 143.185 60.9254 141.842 60.6629 140.513C60.387 138.706 61.4111 137.568 63.7353 137.101C65.0147 136.95 66.1726 136.991 67.2089 137.226C68.1337 137.41 69.0494 137.442 69.956 137.321C70.8845 137.127 71.7511 136.772 72.5556 136.256C73.4602 135.723 74.5241 135.317 75.7471 135.039C76.8816 134.844 77.8088 134.943 78.5286 135.334C79.2428 135.692 79.6772 136.322 79.8318 137.223C79.9942 138.569 79.6899 140.098 78.919 141.811C78.1815 143.517 77.1731 145.047 75.894 146.4C74.6149 147.753 73.2971 148.581 71.9405 148.882ZM64.695 150.796C64.5436 151.715 64.1743 152.465 63.5872 153.047C63 153.629 62.3113 153.919 61.521 153.917C60.7526 153.843 60.1385 153.467 59.6789 152.79C59.2583 152.141 59.0875 151.346 59.1664 150.405C59.3178 149.486 59.687 148.736 60.2742 148.154C60.8556 147.539 61.5443 147.249 62.3404 147.284C63.1088 147.358 63.7228 147.734 64.1825 148.411C64.6031 149.06 64.7739 149.855 64.695 150.796ZM69.121 151.067C69.9285 151.168 70.5764 151.641 71.0647 152.485C71.5473 153.295 71.7358 154.293 71.6302 155.479C71.4856 156.637 71.0977 157.58 70.4668 158.307C69.8692 159.027 69.1557 159.373 68.3262 159.344C67.4854 159.248 66.8236 158.794 66.3411 157.984C65.8528 157.141 65.6614 156.126 65.767 154.94C65.9116 153.781 66.2994 152.839 66.9304 152.112C67.528 151.392 68.2582 151.043 69.121 151.067ZM83.4426 150.154C82.698 150.419 81.952 150.375 81.2045 150.023C80.457 149.67 79.8587 149.086 79.4095 148.27C79.0213 147.409 78.9172 146.603 79.0972 145.851C79.3049 145.059 79.7585 144.5 80.4582 144.174C81.2027 143.909 81.9487 143.953 82.6962 144.305C83.4438 144.658 84.0421 145.242 84.4913 146.058C84.8795 146.919 84.9669 147.728 84.7535 148.486C84.5459 149.278 84.1089 149.834 83.4426 150.154ZM75.3771 149.993C76.1159 149.694 76.9039 149.782 77.741 150.257C78.5782 150.731 79.2581 151.491 79.7808 152.534C80.2758 153.617 80.4309 154.621 80.2462 155.546C80.0672 156.504 79.5973 157.169 78.8366 157.54C78.0978 157.838 77.3098 157.75 76.4727 157.276C75.6355 156.801 74.9556 156.042 74.433 154.998C73.9379 153.915 73.7828 152.911 73.9676 151.986C74.1466 151.028 74.6164 150.364 75.3771 149.993Z" fill="#ffffff"/>
<path d="M102.639 187.133C101.301 186.758 100.03 185.861 98.8263 184.44C97.6227 183.019 96.6991 181.437 96.0554 179.693C95.3788 177.941 95.1747 176.401 95.443 175.073C95.8828 173.298 97.2654 172.642 99.5909 173.103C100.83 173.455 101.883 173.939 102.75 174.553C103.533 175.079 104.366 175.46 105.249 175.697C106.181 175.875 107.117 175.88 108.058 175.713C109.098 175.568 110.237 175.602 111.473 175.815C112.595 176.071 113.413 176.518 113.927 177.157C114.449 177.762 114.608 178.51 114.405 179.401C114.037 180.706 113.169 182.001 111.799 183.286C110.462 184.578 108.944 185.603 107.243 186.361C105.542 187.119 104.007 187.376 102.639 187.133ZM95.2144 186.116C94.7215 186.906 94.0922 187.457 93.3267 187.768C92.5611 188.08 91.8138 188.083 91.0848 187.777C90.4039 187.414 89.9813 186.831 89.817 186.03C89.6781 185.269 89.8259 184.469 90.2604 183.631C90.7533 182.84 91.3825 182.289 92.1481 181.978C92.9212 181.634 93.6685 181.631 94.39 181.969C95.0709 182.333 95.4935 182.915 95.6578 183.717C95.7966 184.478 95.6488 185.277 95.2144 186.116ZM99.1966 188.066C99.903 188.471 100.319 189.156 100.446 190.123C100.58 191.056 100.371 192.05 99.8176 193.104C99.239 194.118 98.5188 194.839 97.6571 195.268C96.8283 195.703 96.0368 195.749 95.2823 195.403C94.5429 194.991 94.1061 194.318 93.9719 193.385C93.8453 192.418 94.0586 191.408 94.6117 190.353C95.1904 189.34 95.9106 188.618 96.7723 188.19C97.601 187.754 98.4091 187.713 99.1966 188.066ZM112.769 192.727C111.98 192.686 111.308 192.359 110.753 191.746C110.199 191.133 109.871 190.364 109.77 189.438C109.742 188.494 109.956 187.709 110.411 187.084C110.907 186.433 111.541 186.092 112.312 186.06C113.101 186.101 113.773 186.428 114.328 187.041C114.882 187.653 115.21 188.423 115.311 189.349C115.339 190.292 115.109 191.073 114.62 191.691C114.125 192.342 113.508 192.687 112.769 192.727ZM105.385 189.479C106.182 189.487 106.876 189.871 107.466 190.631C108.057 191.391 108.393 192.353 108.474 193.517C108.515 194.707 108.272 195.694 107.746 196.477C107.213 197.292 106.524 197.725 105.679 197.776C104.882 197.767 104.189 197.383 103.598 196.624C103.008 195.864 102.672 194.902 102.59 193.737C102.549 192.547 102.792 191.561 103.318 190.778C103.851 189.962 104.54 189.529 105.385 189.479Z" fill="#ffffff"/>
<path d="M62.9532 196.377C61.7792 195.633 60.82 194.408 60.0755 192.701C59.331 190.995 58.9012 189.214 58.7861 187.358C58.6415 185.486 58.8886 183.952 59.5272 182.758C60.4586 181.184 61.9716 180.952 64.0663 182.063C65.1519 182.756 66.0215 183.522 66.675 184.36C67.2736 185.088 67.9621 185.693 68.7405 186.173C69.5817 186.612 70.477 186.886 71.4264 186.996C72.4641 187.157 73.5444 187.516 74.6673 188.076C75.6685 188.643 76.3236 189.307 76.6326 190.066C76.9583 190.796 76.8956 191.558 76.4447 192.353C75.7177 193.497 74.5136 194.488 72.8324 195.325C71.1807 196.178 69.4314 196.724 67.5846 196.96C65.7377 197.197 64.1939 197.003 62.9532 196.377ZM56.1344 193.268C55.4351 193.884 54.6741 194.23 53.8513 194.309C53.0285 194.387 52.3119 194.175 51.7014 193.673C51.1538 193.129 50.9164 192.449 50.9894 191.634C51.0751 190.866 51.4466 190.142 52.1036 189.464C52.8029 188.849 53.564 188.502 54.3867 188.424C55.2262 188.316 55.9428 188.528 56.5366 189.059C57.0842 189.604 57.3216 190.283 57.2486 191.098C57.1629 191.867 56.7915 192.59 56.1344 193.268ZM59.3878 196.281C59.9482 196.871 60.1501 197.648 59.9937 198.61C59.8539 199.542 59.3675 200.434 58.5346 201.285C57.689 202.09 56.7919 202.573 55.8434 202.736C54.9244 202.915 54.1533 202.731 53.5301 202.183C52.9402 201.576 52.7152 200.806 52.855 199.873C53.0115 198.911 53.5062 198.005 54.3391 197.154C55.1847 196.349 56.0818 195.866 57.0303 195.703C57.9493 195.524 58.7352 195.716 59.3878 196.281ZM71.0482 204.646C70.3042 204.38 69.7545 203.874 69.3994 203.127C69.0443 202.381 68.9514 201.55 69.1206 200.634C69.3654 199.722 69.7957 199.032 70.4115 198.564C71.0734 198.083 71.7784 197.938 72.5265 198.129C73.2706 198.395 73.8202 198.901 74.1753 199.648C74.5304 200.394 74.6233 201.225 74.4541 202.141C74.2093 203.053 73.7643 203.735 73.119 204.186C72.4571 204.667 71.7669 204.82 71.0482 204.646ZM64.9092 199.413C65.67 199.65 66.224 200.217 66.5712 201.114C66.9184 202.012 66.9636 203.03 66.7069 204.169C66.4041 205.32 65.8883 206.195 65.1596 206.794C64.4141 207.422 63.6296 207.639 62.8059 207.444C62.0451 207.207 61.4911 206.64 61.1439 205.742C60.7967 204.845 60.7515 203.827 61.0082 202.688C61.311 201.537 61.8268 200.661 62.5556 200.063C63.301 199.435 64.0855 199.218 64.9092 199.413Z" fill="#ffffff"/>
<path d="M72.2919 234.773C71.318 233.782 70.6627 232.37 70.3261 230.539C69.9895 228.708 69.9762 226.875 70.2864 225.042C70.5717 223.186 71.1612 221.749 72.0549 220.731C73.3198 219.411 74.8459 219.53 76.633 221.087C77.5323 222.01 78.2048 222.953 78.6506 223.918C79.0677 224.764 79.6006 225.509 80.2492 226.154C80.9686 226.772 81.778 227.243 82.6774 227.566C83.6513 227.959 84.6215 228.555 85.5877 229.355C86.4335 230.136 86.9204 230.931 87.0485 231.74C87.1996 232.525 86.9652 233.253 86.3451 233.924C85.3768 234.873 83.9789 235.564 82.1514 235.996C80.3488 236.452 78.5213 236.585 76.669 236.395C74.8167 236.205 73.3577 235.665 72.2919 234.773ZM66.3593 230.194C65.5384 230.634 64.7184 230.799 63.8994 230.688C63.0804 230.577 62.4308 230.207 61.9506 229.58C61.5411 228.925 61.4646 228.209 61.7211 227.433C61.9795 226.703 62.5058 226.084 63.3 225.573C64.1209 225.133 64.9409 224.968 65.7599 225.079C66.6018 225.165 67.2515 225.535 67.7087 226.187C68.1182 226.842 68.1947 227.557 67.9382 228.334C67.6798 229.063 67.1535 229.683 66.3593 230.194ZM68.8419 233.868C69.2532 234.571 69.2732 235.372 68.9019 236.274C68.5536 237.15 67.8771 237.908 66.8724 238.547C65.8658 239.138 64.8823 239.405 63.9217 239.347C62.9859 239.313 62.277 238.958 61.7948 238.282C61.3586 237.557 61.3147 236.756 61.663 235.88C62.0343 234.979 62.7223 234.208 63.727 233.569C64.7335 232.978 65.7171 232.711 66.6777 232.769C67.6135 232.803 68.3348 233.17 68.8419 233.868ZM78.2929 244.667C77.629 244.239 77.209 243.621 77.033 242.813C76.857 242.005 76.9557 241.175 77.3289 240.322C77.7748 239.489 78.3508 238.915 79.057 238.6C79.8109 238.282 80.5304 238.301 81.2154 238.657C81.8794 239.086 82.2994 239.704 82.4753 240.511C82.6513 241.319 82.5527 242.149 82.1795 243.003C81.7336 243.835 81.1451 244.398 80.4141 244.69C79.6601 245.008 78.9531 245 78.2929 244.667ZM73.5058 238.174C74.1927 238.578 74.6031 239.256 74.737 240.209C74.8708 241.162 74.6832 242.164 74.1741 243.215C73.6172 244.267 72.9158 245.002 72.07 245.419C71.2012 245.861 70.3879 245.893 69.6302 245.516C68.9433 245.112 68.5329 244.434 68.399 243.481C68.2652 242.528 68.4528 241.526 68.9619 240.476C69.5188 239.423 70.2202 238.689 71.066 238.272C71.9348 237.83 72.748 237.797 73.5058 238.174Z" fill="#ffffff"/>
<path d="M22.8394 235.306C21.8655 234.314 21.2102 232.903 20.8736 231.072C20.537 229.24 20.5237 227.408 20.8339 225.575C21.1191 223.719 21.7086 222.282 22.6024 221.264C23.8673 219.944 25.3934 220.063 27.1805 221.62C28.0798 222.543 28.7523 223.486 29.1981 224.451C29.6152 225.296 30.148 226.042 30.7967 226.687C31.5161 227.305 32.3255 227.776 33.2249 228.099C34.1988 228.491 35.1689 229.088 36.1352 229.888C36.9809 230.668 37.4679 231.464 37.596 232.273C37.7471 233.058 37.5126 233.786 36.8926 234.457C35.9243 235.406 34.5263 236.097 32.6989 236.529C30.8963 236.985 29.0688 237.117 27.2165 236.928C25.3642 236.738 23.9052 236.197 22.8394 235.306ZM16.9068 230.727C16.0859 231.167 15.2659 231.332 14.4469 231.22C13.6279 231.109 12.9783 230.74 12.4981 230.112C12.0886 229.458 12.0121 228.742 12.2686 227.965C12.527 227.236 13.0533 226.616 13.8475 226.105C14.6684 225.665 15.4884 225.501 16.3074 225.612C17.1493 225.698 17.7989 226.068 18.2562 226.72C18.6657 227.375 18.7421 228.09 18.4857 228.867C18.2273 229.596 17.701 230.216 16.9068 230.727ZM19.3893 234.401C19.8007 235.104 19.8207 235.905 19.4494 236.807C19.1011 237.683 18.4246 238.441 17.4199 239.08C16.4133 239.671 15.4297 239.938 14.4691 239.88C13.5334 239.846 12.8245 239.491 12.3423 238.815C11.9061 238.09 11.8622 237.289 12.2105 236.413C12.5818 235.511 13.2698 234.741 14.2745 234.102C15.281 233.511 16.2646 233.244 17.2252 233.302C18.1609 233.336 18.8823 233.703 19.3893 234.401ZM28.8404 245.2C28.1765 244.771 27.7565 244.153 27.5805 243.346C27.4045 242.538 27.5031 241.708 27.8764 240.854C28.3223 240.022 28.8983 239.448 29.6044 239.132C30.3584 238.815 31.0779 238.834 31.7629 239.19C32.4269 239.619 32.8469 240.237 33.0228 241.044C33.1988 241.852 33.1002 242.682 32.727 243.536C32.2811 244.368 31.6926 244.931 30.9616 245.223C30.2076 245.541 29.5006 245.533 28.8404 245.2ZM24.0533 238.707C24.7402 239.111 25.1506 239.789 25.2845 240.742C25.4183 241.695 25.2307 242.697 24.7216 243.747C24.1647 244.8 23.4633 245.535 22.6175 245.952C21.7487 246.394 20.9354 246.426 20.1777 246.049C19.4908 245.645 19.0804 244.967 18.9465 244.014C18.8126 243.061 19.0002 242.059 19.5093 241.009C20.0663 239.956 20.7677 239.222 21.6135 238.804C22.4823 238.363 23.2955 238.33 24.0533 238.707Z" fill="#ffffff"/>
</svg>
