<svg width="19" height="19" viewBox="0 0 19 19" fill="none" xmlns="http://www.w3.org/2000/svg">
<path d="M16.875 12L13.4297 10.5234C13.0547 10.3594 12.668 10.3242 12.2695 10.418C11.8711 10.5117 11.543 10.7227 11.2852 11.0508L10.3008 12.2461C8.70703 11.3086 7.44141 10.0547 6.50391 8.48438L7.69922 7.5C8.02734 7.24219 8.23828 6.91406 8.33203 6.51562C8.42578 6.11719 8.39062 5.73047 8.22656 5.35547L6.75 1.875C6.5625 1.45312 6.26953 1.14844 5.87109 0.960938C5.49609 0.75 5.08594 0.691406 4.64062 0.785156L1.44141 1.52344C0.996094 1.64062 0.644531 1.86328 0.386719 2.19141C0.128906 2.51953 0 2.89453 0 3.31641C0.0234375 6.19922 0.726563 8.80078 2.10938 11.1211C3.49219 13.418 5.33203 15.2578 7.62891 16.6406C9.94922 18.0234 12.5508 18.7266 15.4336 18.75C15.8555 18.75 16.2305 18.6211 16.5586 18.3633C16.8867 18.1055 17.0977 17.7539 17.1914 17.3086L17.9297 14.1094C18.0234 13.6641 17.9766 13.2539 17.7891 12.8789C17.6016 12.4805 17.2969 12.1875 16.875 12ZM16.3125 13.7227L15.5742 16.957C15.5508 17.0039 15.5039 17.0391 15.4336 17.0625C12.8789 17.0391 10.5703 16.418 8.50781 15.1992C6.44531 13.957 4.79297 12.3047 3.55078 10.2422C2.33203 8.17969 1.71094 5.87109 1.6875 3.31641C1.6875 3.24609 1.72266 3.19922 1.79297 3.17578L5.02734 2.4375C5.02734 2.4375 5.03906 2.4375 5.0625 2.4375C5.10938 2.4375 5.15625 2.47266 5.20312 2.54297L6.67969 5.98828C6.70312 6.05859 6.69141 6.11719 6.64453 6.16406L4.92188 7.53516C4.59375 7.81641 4.51172 8.15625 4.67578 8.55469C5.28516 9.75 6.04688 10.8164 6.96094 11.7539C7.89844 12.6914 8.96484 13.4531 10.1602 14.0391C10.5352 14.2031 10.875 14.1211 11.1797 13.793L12.5859 12.1055C12.6328 12.0352 12.6914 12.0117 12.7617 12.0352L16.207 13.5117C16.2773 13.582 16.3125 13.6523 16.3125 13.7227Z" fill="#3C3950"/>
</svg>
