<svg width="19" height="19" viewBox="0 0 19 19" fill="none" xmlns="http://www.w3.org/2000/svg">
<path d="M17.7188 16.8086L13.0078 12.0977C14.0391 10.8086 14.5664 9.29688 14.5898 7.5625C14.543 5.5 13.8281 3.77734 12.4453 2.39453C11.0625 1.01172 9.33984 0.296875 7.27734 0.25C5.21484 0.296875 3.49219 1.01172 2.10938 2.39453C0.75 3.77734 0.046875 5.5 0 7.5625C0.046875 9.625 0.761719 11.3477 2.14453 12.7305C3.50391 14.1133 5.21484 14.8281 7.27734 14.875C9.03516 14.8516 10.5469 14.3242 11.8125 13.293L16.5234 18.0039C16.7344 18.168 16.9453 18.25 17.1562 18.25C17.3906 18.25 17.5898 18.168 17.7539 18.0039C18.082 17.6055 18.0703 17.207 17.7188 16.8086ZM1.6875 7.5625C1.73438 5.96875 2.28516 4.64453 3.33984 3.58984C4.39453 2.53516 5.71875 1.98437 7.3125 1.9375C8.90625 1.98437 10.2305 2.53516 11.2852 3.58984C12.3398 4.64453 12.8906 5.96875 12.9375 7.5625C12.8906 9.15625 12.3398 10.4805 11.2852 11.5352C10.2305 12.5898 8.90625 13.1406 7.3125 13.1875C5.71875 13.1406 4.39453 12.5898 3.33984 11.5352C2.28516 10.4805 1.73438 9.15625 1.6875 7.5625Z" fill="white"/>
</svg>
