<svg width="26" height="25" viewBox="0 0 26 25" fill="none" xmlns="http://www.w3.org/2000/svg">
<path d="M21.2031 22.2656C21.2969 22.8594 21.0938 23.3438 20.5938 23.7188C20.0938 24.0625 19.5781 24.0938 19.0469 23.8125L13 20.625L7 23.8125C6.4375 24.0938 5.90625 24.0625 5.40625 23.7188C4.9375 23.3438 4.73438 22.8594 4.79688 22.2656L5.96875 15.375L1.09375 10.5938C0.65625 10.1562 0.53125 9.64062 0.71875 9.04688C0.90625 8.48438 1.29688 8.15625 1.89062 8.0625L8.64062 7.03125L11.6406 0.84375C11.9531 0.3125 12.4062 0.03125 13 0C13.625 0.03125 14.0781 0.3125 14.3594 0.84375L17.3594 7.03125L24.1094 8.0625C24.7031 8.15625 25.1094 8.48438 25.3281 9.04688C25.4844 9.64062 25.3594 10.1562 24.9531 10.5938L20.0781 15.375L21.2031 22.2656ZM13 17.625L18.25 20.4375L17.2188 14.5312L21.4844 10.3125L15.625 9.42188L13 4.07812V17.625Z" fill="#FAB022"/>
</svg>
