<svg width="22" height="21" viewBox="0 0 22 21" fill="none" xmlns="http://www.w3.org/2000/svg">
<path d="M11 0.5C11.3906 0.526042 11.6771 0.708333 11.8594 1.04688L14.5156 6.55469L20.4922 7.45312C20.8828 7.50521 21.1432 7.71354 21.2734 8.07812C21.3776 8.44271 21.2995 8.75521 21.0391 9.01562L16.7031 13.3125L17.7188 19.4062C17.7708 19.7708 17.6406 20.0703 17.3281 20.3047C16.9896 20.513 16.6641 20.5391 16.3516 20.3828L11 17.5312L5.60938 20.3828C5.29688 20.5391 4.98438 20.513 4.67188 20.3047C4.35938 20.0703 4.21615 19.7708 4.24219 19.4062L5.29688 13.3125L0.960938 9.01562C0.700521 8.75521 0.622396 8.44271 0.726562 8.07812C0.856771 7.71354 1.10417 7.50521 1.46875 7.45312L7.48438 6.55469L10.1406 1.04688C10.3229 0.708333 10.6094 0.526042 11 0.5ZM11 3.58594L8.92969 7.80469C8.79948 8.09115 8.5651 8.27344 8.22656 8.35156L3.61719 9.01562L6.97656 12.3359C7.1849 12.5703 7.27604 12.8438 7.25 13.1562L6.42969 17.8438L10.5703 15.6562C10.8568 15.5 11.1432 15.5 11.4297 15.6562L15.5312 17.8438L14.75 13.1562C14.6979 12.8438 14.7891 12.5703 15.0234 12.3359L18.3828 9.01562L13.7734 8.35156C13.4349 8.27344 13.2005 8.09115 13.0703 7.80469L11 3.58594Z" fill="#FAB022"/>
</svg>
