<svg width="86" height="13" viewBox="0 0 86 13" fill="none" xmlns="http://www.w3.org/2000/svg">
<path d="M9.17969 4.01562L12.5547 4.53125C12.8516 4.57812 13.0547 4.74219 13.1641 5.02344C13.2422 5.32031 13.1797 5.57812 12.9766 5.79688L10.5391 8.1875L11.1016 11.6328C11.1484 11.9297 11.0469 12.1719 10.7969 12.3594C10.5469 12.5312 10.2891 12.5469 10.0234 12.4062L7 10.8125L4 12.4062C3.71875 12.5469 3.45312 12.5312 3.20312 12.3594C2.96875 12.1719 2.86719 11.9297 2.89844 11.6328L3.48438 8.1875L1.04688 5.79688C0.828125 5.57812 0.765625 5.32031 0.859375 5.02344C0.953125 4.74219 1.14844 4.57812 1.44531 4.53125L4.82031 4.01562L6.32031 0.921875C6.47656 0.65625 6.70312 0.515625 7 0.5C7.3125 0.515625 7.53906 0.65625 7.67969 0.921875L9.17969 4.01562Z" fill="#FAB022"/>
<path d="M27.1797 4.01562L30.5547 4.53125C30.8516 4.57812 31.0547 4.74219 31.1641 5.02344C31.2422 5.32031 31.1797 5.57812 30.9766 5.79688L28.5391 8.1875L29.1016 11.6328C29.1484 11.9297 29.0469 12.1719 28.7969 12.3594C28.5469 12.5312 28.2891 12.5469 28.0234 12.4062L25 10.8125L22 12.4062C21.7188 12.5469 21.4531 12.5312 21.2031 12.3594C20.9688 12.1719 20.8672 11.9297 20.8984 11.6328L21.4844 8.1875L19.0469 5.79688C18.8281 5.57812 18.7656 5.32031 18.8594 5.02344C18.9531 4.74219 19.1484 4.57812 19.4453 4.53125L22.8203 4.01562L24.3203 0.921875C24.4766 0.65625 24.7031 0.515625 25 0.5C25.3125 0.515625 25.5391 0.65625 25.6797 0.921875L27.1797 4.01562Z" fill="#FAB022"/>
<path d="M45.1797 4.01562L48.5547 4.53125C48.8516 4.57812 49.0547 4.74219 49.1641 5.02344C49.2422 5.32031 49.1797 5.57812 48.9766 5.79688L46.5391 8.1875L47.1016 11.6328C47.1484 11.9297 47.0469 12.1719 46.7969 12.3594C46.5469 12.5312 46.2891 12.5469 46.0234 12.4062L43 10.8125L40 12.4062C39.7188 12.5469 39.4531 12.5312 39.2031 12.3594C38.9688 12.1719 38.8672 11.9297 38.8984 11.6328L39.4844 8.1875L37.0469 5.79688C36.8281 5.57812 36.7656 5.32031 36.8594 5.02344C36.9531 4.74219 37.1484 4.57812 37.4453 4.53125L40.8203 4.01562L42.3203 0.921875C42.4766 0.65625 42.7031 0.515625 43 0.5C43.3125 0.515625 43.5391 0.65625 43.6797 0.921875L45.1797 4.01562Z" fill="#FAB022"/>
<path d="M63.1797 4.01562L66.5547 4.53125C66.8516 4.57812 67.0547 4.74219 67.1641 5.02344C67.2422 5.32031 67.1797 5.57812 66.9766 5.79688L64.5391 8.1875L65.1016 11.6328C65.1484 11.9297 65.0469 12.1719 64.7969 12.3594C64.5469 12.5312 64.2891 12.5469 64.0234 12.4062L61 10.8125L58 12.4062C57.7188 12.5469 57.4531 12.5312 57.2031 12.3594C56.9688 12.1719 56.8672 11.9297 56.8984 11.6328L57.4844 8.1875L55.0469 5.79688C54.8281 5.57812 54.7656 5.32031 54.8594 5.02344C54.9531 4.74219 55.1484 4.57812 55.4453 4.53125L58.8203 4.01562L60.3203 0.921875C60.4766 0.65625 60.7031 0.515625 61 0.5C61.3125 0.515625 61.5391 0.65625 61.6797 0.921875L63.1797 4.01562Z" fill="#FAB022"/>
<path d="M81.1797 4.01562L84.5547 4.53125C84.8516 4.57812 85.0547 4.74219 85.1641 5.02344C85.2422 5.32031 85.1797 5.57812 84.9766 5.79688L82.5391 8.1875L83.1016 11.6328C83.1484 11.9297 83.0469 12.1719 82.7969 12.3594C82.5469 12.5312 82.2891 12.5469 82.0234 12.4062L79 10.8125L76 12.4062C75.7188 12.5469 75.4531 12.5312 75.2031 12.3594C74.9688 12.1719 74.8672 11.9297 74.8984 11.6328L75.4844 8.1875L73.0469 5.79688C72.8281 5.57812 72.7656 5.32031 72.8594 5.02344C72.9531 4.74219 73.1484 4.57812 73.4453 4.53125L76.8203 4.01562L78.3203 0.921875C78.4766 0.65625 78.7031 0.515625 79 0.5C79.3125 0.515625 79.5391 0.65625 79.6797 0.921875L81.1797 4.01562Z" fill="#FAB022"/>
</svg>
