<svg width="17" height="21" viewBox="0 0 17 21" fill="none" xmlns="http://www.w3.org/2000/svg">
<path d="M16.875 8.13281C15.293 8.16797 13.8164 7.67578 12.5508 6.76172V13.0547C12.5508 17.4492 7.76953 20.1914 3.97266 18.0117C0.175781 15.7969 0.175781 10.3125 3.97266 8.09766C5.0625 7.46484 6.36328 7.21875 7.62891 7.39453V10.5586C5.69531 9.92578 3.83203 11.6484 4.25391 13.6172C4.71094 15.5859 7.10156 16.3594 8.61328 14.9883C9.14062 14.4961 9.45703 13.793 9.45703 13.0547V0.75H12.5508C12.5508 1.03125 12.5508 1.27734 12.6211 1.55859C12.832 2.71875 13.5 3.73828 14.5195 4.37109C15.1875 4.82812 16.0312 5.07422 16.875 5.07422V8.13281Z" fill="#3C3950"/>
</svg>
