<svg width="72" height="72" viewBox="0 0 72 72" fill="none" xmlns="http://www.w3.org/2000/svg">
<g clip-path="url(#clip0_6_3869)">
<path d="M26.4346 0.298129C28.3529 -0.216156 30.4409 -0.0824422 32.354 0.791844C33.5112 1.32156 34.7558 1.58384 36.0003 1.58384C37.2449 1.58384 38.4895 1.32156 39.6466 0.791844C41.5598 -0.0824422 43.6529 -0.216156 45.566 0.298129C47.4843 0.812415 49.2278 1.96956 50.4466 3.68213C51.1872 4.71584 52.1283 5.56956 53.2083 6.19184C54.2832 6.81413 55.4969 7.20499 56.762 7.32842C58.8552 7.52899 60.7323 8.45984 62.1363 9.86384C63.5403 11.2678 64.4712 13.145 64.6718 15.2381C64.7952 16.5033 65.186 17.7118 65.8083 18.7918C66.4306 19.8667 67.2792 20.813 68.318 21.5536C70.0306 22.7776 71.1929 24.5158 71.702 26.4341C72.2163 28.3524 72.0826 30.4404 71.2083 32.3536C70.6786 33.5107 70.4163 34.7553 70.4163 35.9998C70.4163 37.2444 70.6786 38.489 71.2083 39.6461C72.0826 41.5593 72.2163 43.6524 71.702 45.5656C71.1878 47.4787 70.0306 49.2273 68.318 50.4461C67.2843 51.1867 66.4306 52.1278 65.8083 53.2078C65.186 54.2827 64.7952 55.4964 64.6718 56.7616C64.4712 58.8547 63.5403 60.7318 62.1363 62.1358C60.7323 63.5398 58.8552 64.4707 56.762 64.6713C55.4969 64.7947 54.2883 65.1856 53.2083 65.8078C52.1335 66.4301 51.1872 67.2787 50.4466 68.3176C49.2226 70.0301 47.4843 71.1924 45.566 71.7016C43.6478 72.2158 41.5598 72.0821 39.6466 71.2078C38.4895 70.6781 37.2449 70.4158 36.0003 70.4158C34.7558 70.4158 33.5112 70.6781 32.354 71.2078C30.4409 72.0821 28.3478 72.2158 26.4346 71.7016C24.5163 71.1873 22.7729 70.0301 21.554 68.3176C20.8135 67.2838 19.8723 66.4301 18.7923 65.8078C17.7175 65.1856 16.5038 64.7947 15.2386 64.6713C13.1455 64.4707 11.2683 63.5398 9.86433 62.1358C8.46033 60.7318 7.52948 58.8547 7.3289 56.7616C7.20548 55.4964 6.81462 54.2878 6.19233 53.2078C5.57005 52.133 4.72147 51.1867 3.68262 50.4461C1.97005 49.2221 0.80776 47.4838 0.298618 45.5656C-0.210525 43.6473 -0.0819539 41.5593 0.792332 39.6461C1.32205 38.489 1.58433 37.2444 1.58433 35.9998C1.58433 34.7553 1.32205 33.5107 0.792332 32.3536C-0.0819539 30.4404 -0.215668 28.3473 0.298618 26.4341C0.812903 24.5158 1.97005 22.7724 3.68262 21.5536C4.71633 20.813 5.57005 19.8718 6.19233 18.7918C6.81462 17.717 7.20548 16.5033 7.3289 15.2381C7.52948 13.145 8.46033 11.2678 9.86433 9.86384C11.2683 8.45984 13.1455 7.52899 15.2386 7.32842C16.5038 7.20499 17.7123 6.81413 18.7923 6.19184C19.8672 5.56956 20.8135 4.72099 21.554 3.68213C22.7729 1.9747 24.5163 0.812415 26.4346 0.298129Z" fill="#E3000B"/>
<path d="M44.4063 4.62883L44.4062 4.62879C42.7679 4.18839 40.9757 4.30288 39.3374 5.05153L44.4063 4.62883ZM44.4063 4.62883C46.0497 5.06942 47.5424 6.06037 48.5859 7.52663L48.5864 7.52729M44.4063 4.62883L48.5864 7.52729M48.5864 7.52729C49.2633 8.47214 50.1241 9.25326 51.1128 9.82295C52.0968 10.3926 53.2071 10.75 54.3638 10.8628L54.3642 10.8629M48.5864 7.52729L54.3642 10.8629M54.3642 10.8629C56.1566 11.0346 57.7641 11.8316 58.9667 13.0342C60.1694 14.2369 60.9664 15.8443 61.1381 17.6367L61.1381 17.6372M54.3642 10.8629L61.1381 17.6372M61.1381 17.6372C61.251 18.7942 61.6085 19.8998 62.1779 20.888L62.1782 20.8884M61.1381 17.6372L62.1782 20.8884M62.1782 20.8884C62.7473 21.8715 63.5236 22.7373 64.4742 23.4149C65.9412 24.4635 66.9361 25.9519 67.372 27.594L67.3721 27.5946C67.8126 29.2376 67.6981 31.0253 66.9494 32.6636C66.4646 33.7228 66.2247 34.8616 66.2247 36C66.2247 37.1384 66.4646 38.2772 66.9494 39.3364M62.1782 20.8884L61.3941 54.3878M61.3941 54.3878C61.5034 53.2673 61.8496 52.1924 62.4007 51.2404C62.9518 50.2839 63.7079 49.4504 64.6234 48.7945C66.1402 47.715 67.165 46.1663 67.6205 44.472C68.076 42.7776 67.9576 40.9238 67.1833 39.2294L66.9494 39.3362C66.9494 39.3363 66.9494 39.3363 66.9494 39.3364M61.3941 54.3878C61.2164 56.2416 60.392 57.9041 59.1485 59.1476C57.9051 60.391 56.2426 61.2155 54.3888 61.3931L61.3941 54.3878ZM66.9494 39.3364C67.6981 40.9747 67.8126 42.7669 67.3722 44.4052C66.9315 46.0444 65.9404 47.5415 64.4743 48.585L64.4737 48.5854C63.5288 49.2623 62.7477 50.1231 62.178 51.1118C61.6084 52.0958 61.251 53.2062 61.1381 54.3628L61.1381 54.3633C60.9664 56.1557 60.1694 57.7631 58.9667 58.9657C57.7641 60.1684 56.1566 60.9654 54.3642 61.1371L54.3638 61.1372C53.2067 61.2501 52.1011 61.6076 51.113 62.1769L51.1125 62.1772C50.1295 62.7463 49.2637 63.5226 48.5861 64.4732C47.5374 65.9403 46.0491 66.9352 44.407 67.371L44.4063 67.3712C42.7634 67.8116 40.9756 67.6971 39.3374 66.9485C38.2782 66.4636 37.1394 66.2237 36.001 66.2237C34.8626 66.2237 33.7237 66.4636 32.6646 66.9485C31.0263 67.6971 29.234 67.8116 27.5958 67.3712L27.5956 67.3712C25.9522 66.9306 24.4595 65.9396 23.416 64.4734L23.4155 64.4727C22.7386 63.5279 21.8778 62.7467 20.8892 62.177C19.9051 61.6074 18.7948 61.25 17.6381 61.1372L17.6377 61.1371C15.8453 60.9654 14.2379 60.1684 13.0352 58.9657C11.8326 57.7631 11.0356 56.1557 10.8638 54.3633L10.8638 54.3628C10.7509 53.2058 10.3934 52.1001 9.82406 51.112L9.8238 51.1116C9.25466 50.1285 8.47836 49.2627 7.52777 48.5851C6.0607 47.5365 5.06581 46.0481 4.62998 44.406C4.19368 42.7622 4.30407 40.9743 5.05251 39.3364C5.53737 38.2772 5.77728 37.1384 5.77728 36C5.77728 34.8617 5.53739 33.7229 5.05258 32.6638C4.30387 31.0254 4.18936 29.2331 4.62976 27.5948L4.62981 27.5946C5.0704 25.9512 6.06135 24.4586 7.52761 23.415L7.52826 23.4146C8.47311 22.7376 9.25423 21.8768 9.82393 20.8882M66.9494 39.3364L9.82393 20.8882M9.82393 20.8882C9.82388 20.8883 9.82384 20.8883 9.8238 20.8884L9.60126 20.7596L9.82406 20.888C9.82402 20.888 9.82397 20.8881 9.82393 20.8882ZM9.82393 20.8882C10.3936 19.9042 10.751 18.7938 10.8638 17.6372L10.8638 17.6367C11.0356 15.8443 11.8326 14.2369 13.0352 13.0342C14.2379 11.8316 15.8453 11.0346 17.6377 10.8629L17.6381 10.8628C18.7952 10.7499 19.9008 10.3924 20.8889 9.82309L20.8894 9.82282C21.8724 9.25371 22.7381 8.47746 23.4158 7.52693M9.82393 20.8882L23.4158 7.52693M23.4158 7.52693C24.4596 6.06471 25.9525 5.06933 27.5956 4.62883C29.2386 4.18834 31.0264 4.30291 32.6647 5.0516C33.7238 5.53642 34.8626 5.77631 36.001 5.77631C37.1393 5.77631 38.2782 5.5364 39.3373 5.05157L23.4158 7.52693Z" stroke="white" stroke-width="0.514286"/>
<path d="M15.2606 42.2285H12.7677V32.5465H9.57526V30.4718H18.4531V32.5465H15.2606V42.2285ZM22.0236 37.7172C22.0236 38.6071 22.1683 39.28 22.4578 39.7356C22.7527 40.1913 23.2298 40.4192 23.8892 40.4192C24.5432 40.4192 25.0123 40.194 25.2965 39.7437C25.586 39.288 25.7307 38.6125 25.7307 37.7172C25.7307 36.8273 25.586 36.1598 25.2965 35.7149C25.007 35.2699 24.5325 35.0474 23.8731 35.0474C23.2191 35.0474 22.7473 35.2699 22.4578 35.7149C22.1683 36.1545 22.0236 36.8219 22.0236 37.7172ZM28.2397 37.7172C28.2397 39.1808 27.8537 40.3254 27.0817 41.1509C26.3097 41.9765 25.2348 42.3893 23.857 42.3893C22.9939 42.3893 22.2326 42.2017 21.5732 41.8264C20.9138 41.4458 20.4072 40.9017 20.0534 40.194C19.6996 39.4864 19.5226 38.6608 19.5226 37.7172C19.5226 36.2483 19.906 35.1064 20.6726 34.2915C21.4392 33.4766 22.5168 33.0692 23.9053 33.0692C24.7684 33.0692 25.5297 33.2568 26.1891 33.6321C26.8485 34.0074 27.3551 34.5462 27.7089 35.2485C28.0628 35.9508 28.2397 36.7737 28.2397 37.7172ZM35.2036 42.3893C34.1475 42.3893 33.3192 42.006 32.7188 41.2394H32.5901C32.6759 41.9899 32.7188 42.4242 32.7188 42.5421V46.185H30.2661V33.2381H32.2604L32.6062 34.4041H32.7188C33.2924 33.5142 34.1422 33.0692 35.268 33.0692C36.3295 33.0692 37.1604 33.4793 37.7609 34.2996C38.3613 35.1198 38.6615 36.259 38.6615 37.7172C38.6615 38.6768 38.5194 39.5105 38.2353 40.2181C37.9565 40.9258 37.5571 41.4646 37.0371 41.8345C36.5171 42.2044 35.9059 42.3893 35.2036 42.3893ZM34.4799 35.0313C33.8741 35.0313 33.4318 35.219 33.1531 35.5942C32.8743 35.9642 32.7295 36.578 32.7188 37.4358V37.7011C32.7188 38.6661 32.8609 39.3577 33.145 39.7758C33.4345 40.194 33.8902 40.4031 34.5121 40.4031C35.6111 40.4031 36.1606 39.4971 36.1606 37.685C36.1606 36.8005 36.0239 36.1384 35.7505 35.6988C35.4824 35.2538 35.0589 35.0313 34.4799 35.0313ZM50.4826 42.2285H47.9977V35.4254L48.0219 34.3076L48.0621 33.0853C47.6493 33.4981 47.3625 33.7688 47.2016 33.8975L45.8506 34.9831L44.6525 33.4874L48.44 30.4718H50.4826V42.2285ZM61.9016 36.3501C61.9016 38.4034 61.5638 39.9233 60.8883 40.9097C60.2182 41.8961 59.1835 42.3893 57.7843 42.3893C56.4279 42.3893 55.404 41.88 54.7124 40.8615C54.0262 39.8429 53.6831 38.3391 53.6831 36.3501C53.6831 34.2754 54.0182 32.7475 54.6883 31.7665C55.3584 30.78 56.3904 30.2868 57.7843 30.2868C59.1406 30.2868 60.1646 30.8015 60.8562 31.8308C61.5531 32.8601 61.9016 34.3666 61.9016 36.3501ZM56.1519 36.3501C56.1519 37.7923 56.2752 38.8269 56.5218 39.4542C56.7737 40.0761 57.1946 40.387 57.7843 40.387C58.3633 40.387 58.7814 40.0707 59.0388 39.4381C59.2961 38.8055 59.4248 37.7762 59.4248 36.3501C59.4248 34.908 59.2934 33.8734 59.0307 33.2461C58.7734 32.6135 58.3579 32.2972 57.7843 32.2972C57.1999 32.2972 56.7818 32.6135 56.5298 33.2461C56.2778 33.8734 56.1519 34.908 56.1519 36.3501Z" fill="white"/>
</g>
<defs>
<clipPath id="clip0_6_3869">
<rect width="72" height="72" fill="white"/>
</clipPath>
</defs>
</svg>
