<svg width="72" height="72" viewBox="0 0 72 72" fill="none" xmlns="http://www.w3.org/2000/svg">
<g clip-path="url(#clip0_1606_5157)">
<path d="M26.4346 0.298129C28.3529 -0.216156 30.4409 -0.0824422 32.354 0.791844C33.5112 1.32156 34.7558 1.58384 36.0003 1.58384C37.2449 1.58384 38.4895 1.32156 39.6466 0.791844C41.5598 -0.0824422 43.6529 -0.216156 45.566 0.298129C47.4843 0.812415 49.2278 1.96956 50.4466 3.68213C51.1872 4.71584 52.1283 5.56956 53.2083 6.19184C54.2832 6.81413 55.4969 7.20499 56.762 7.32842C58.8552 7.52899 60.7323 8.45984 62.1363 9.86384C63.5403 11.2678 64.4712 13.145 64.6718 15.2381C64.7952 16.5033 65.186 17.7118 65.8083 18.7918C66.4306 19.8667 67.2792 20.813 68.318 21.5536C70.0306 22.7776 71.1929 24.5158 71.702 26.4341C72.2163 28.3524 72.0826 30.4404 71.2083 32.3536C70.6786 33.5107 70.4163 34.7553 70.4163 35.9998C70.4163 37.2444 70.6786 38.489 71.2083 39.6461C72.0826 41.5593 72.2163 43.6524 71.702 45.5656C71.1878 47.4787 70.0306 49.2273 68.318 50.4461C67.2843 51.1867 66.4306 52.1278 65.8083 53.2078C65.186 54.2827 64.7952 55.4964 64.6718 56.7616C64.4712 58.8547 63.5403 60.7318 62.1363 62.1358C60.7323 63.5398 58.8552 64.4707 56.762 64.6713C55.4969 64.7947 54.2883 65.1856 53.2083 65.8078C52.1335 66.4301 51.1872 67.2787 50.4466 68.3176C49.2226 70.0301 47.4843 71.1924 45.566 71.7016C43.6478 72.2158 41.5598 72.0821 39.6466 71.2078C38.4895 70.6781 37.2449 70.4158 36.0003 70.4158C34.7558 70.4158 33.5112 70.6781 32.354 71.2078C30.4409 72.0821 28.3478 72.2158 26.4346 71.7016C24.5163 71.1873 22.7729 70.0301 21.554 68.3176C20.8135 67.2838 19.8723 66.4301 18.7923 65.8078C17.7175 65.1856 16.5038 64.7947 15.2386 64.6713C13.1455 64.4707 11.2683 63.5398 9.86433 62.1358C8.46033 60.7318 7.52948 58.8547 7.3289 56.7616C7.20548 55.4964 6.81462 54.2878 6.19233 53.2078C5.57005 52.133 4.72147 51.1867 3.68262 50.4461C1.97005 49.2221 0.80776 47.4838 0.298618 45.5656C-0.210525 43.6473 -0.0819539 41.5593 0.792332 39.6461C1.32205 38.489 1.58433 37.2444 1.58433 35.9998C1.58433 34.7553 1.32205 33.5107 0.792332 32.3536C-0.0819539 30.4404 -0.215668 28.3473 0.298618 26.4341C0.812903 24.5158 1.97005 22.7724 3.68262 21.5536C4.71633 20.813 5.57005 19.8718 6.19233 18.7918C6.81462 17.717 7.20548 16.5033 7.3289 15.2381C7.52948 13.145 8.46033 11.2678 9.86433 9.86384C11.2683 8.45984 13.1455 7.52899 15.2386 7.32842C16.5038 7.20499 17.7123 6.81413 18.7923 6.19184C19.8672 5.56956 20.8135 4.72099 21.554 3.68213C22.7729 1.9747 24.5163 0.812415 26.4346 0.298129Z" fill="#E3000B"/>
<path fill-rule="evenodd" clip-rule="evenodd" d="M32.7591 4.70599C31.0586 3.92889 29.2027 3.81004 27.4977 4.26716C25.7927 4.72427 24.243 5.75735 23.1597 7.27497C22.5014 8.19834 21.6603 8.95257 20.705 9.50568C19.745 10.0588 18.6708 10.4062 17.5463 10.5159C15.6859 10.6942 14.0174 11.5216 12.7695 12.7695C11.5216 14.0174 10.6942 15.6859 10.5159 17.5463C10.4062 18.6708 10.0588 19.7496 9.50568 20.705C8.95257 21.6649 8.19376 22.5014 7.27497 23.1597C5.75278 24.243 4.72427 25.7927 4.26716 27.4977C3.81004 29.1981 3.92889 31.0586 4.70599 32.7591C5.17681 33.7876 5.40994 34.8938 5.40994 36C5.40994 37.1062 5.17681 38.2124 4.70599 39.2409C3.92889 40.9414 3.81461 42.7973 4.26716 44.5023C4.7197 46.2074 5.75278 47.7524 7.27497 48.8403C8.19834 49.4986 8.95257 50.3397 9.50568 51.295C10.0588 52.255 10.4062 53.3292 10.5159 54.4537C10.6942 56.3141 11.5216 57.9826 12.7695 59.2305C14.0174 60.4784 15.6859 61.3058 17.5463 61.4841C18.6708 61.5938 19.7496 61.9412 20.705 62.4943C21.6649 63.0474 22.5014 63.8062 23.1597 64.725C24.243 66.2472 25.7927 67.2757 27.4977 67.7328C29.1981 68.19 31.0586 68.0711 32.7591 67.294C33.7876 66.8232 34.8938 66.5901 36 66.5901C37.1062 66.5901 38.2124 66.8232 39.2409 67.294C40.9414 68.0711 42.7973 68.19 44.5023 67.7328C46.2074 67.2803 47.7524 66.2472 48.8403 64.725C49.4986 63.8017 50.3397 63.0474 51.295 62.4943C52.255 61.9412 53.3292 61.5938 54.4537 61.4841C56.3141 61.3058 57.9826 60.4784 59.2305 59.2305C60.4784 57.9826 61.3058 56.3141 61.4841 54.4537C61.5938 53.3292 61.9412 52.2504 62.4943 51.295C63.0474 50.3351 63.8062 49.4986 64.725 48.8403C66.2472 47.757 67.2757 46.2028 67.7328 44.5023C68.19 42.8019 68.0711 40.9414 67.294 39.2409C66.8232 38.2124 66.5901 37.1062 66.5901 36C66.5901 34.8938 66.8232 33.7876 67.294 32.7591C68.0711 31.0586 68.19 29.2027 67.7328 27.4977C67.2803 25.7927 66.2472 24.2476 64.725 23.1597C63.8017 22.5014 63.0474 21.6603 62.4943 20.705C61.9412 19.745 61.5938 18.6708 61.4841 17.5463C61.3058 15.6859 60.4784 14.0174 59.2305 12.7695C57.9826 11.5216 56.3141 10.6942 54.4537 10.5159C53.3292 10.4062 52.2504 10.0588 51.295 9.50568C50.3351 8.95257 49.4986 8.19376 48.8403 7.27497C47.757 5.75278 46.2074 4.72427 44.5023 4.26716C42.8019 3.81004 40.9414 3.92889 39.2409 4.70599C38.2124 5.17681 37.1062 5.40994 36 5.40994C34.8938 5.40994 33.7876 5.17681 32.7591 4.70599ZM32.8603 5.68392C31.213 4.93111 29.4151 4.81598 27.7634 5.25881C26.1116 5.70164 24.6104 6.70243 23.5609 8.17262C22.9233 9.06714 22.1085 9.79781 21.1829 10.3336C20.253 10.8695 19.2124 11.206 18.123 11.3123C16.3207 11.485 14.7044 12.2865 13.4954 13.4954C12.2865 14.7044 11.485 16.3207 11.3123 18.123C11.206 19.2124 10.8695 20.2574 10.3336 21.1829C9.79781 22.1129 9.06271 22.9233 8.17262 23.5609C6.698 24.6104 5.70164 26.1116 5.25881 27.7634C4.81598 29.4107 4.93111 31.213 5.68392 32.8603C6.14004 33.8567 6.36588 34.9284 6.36588 36C6.36588 37.0716 6.14004 38.1433 5.68392 39.1397C4.93111 40.787 4.82041 42.5849 5.25881 44.2366C5.69721 45.8884 6.698 47.3851 8.17262 48.4391C9.06714 49.0767 9.79781 49.8915 10.3336 50.8171C10.8695 51.747 11.206 52.7877 11.3123 53.877C11.485 55.6793 12.2865 57.2957 13.4954 58.5046C14.7044 59.7135 16.3207 60.515 18.123 60.6877C19.2124 60.794 20.2574 61.1306 21.1829 61.6664C22.1129 62.2022 22.9233 62.9373 23.5609 63.8274C24.6104 65.302 26.1116 66.2984 27.7634 66.7412C29.4107 67.184 31.213 67.0689 32.8603 66.3161C33.8567 65.86 34.9284 65.6341 36 65.6341C37.0716 65.6341 38.1433 65.86 39.1397 66.3161C40.787 67.0689 42.5849 67.184 44.2366 66.7412C45.8884 66.3028 47.3851 65.302 48.4391 63.8274C49.0767 62.9329 49.8915 62.2022 50.8171 61.6664C51.747 61.1306 52.7877 60.794 53.877 60.6877C55.6793 60.515 57.2957 59.7135 58.5046 58.5046C59.7135 57.2957 60.515 55.6793 60.6877 53.877C60.794 52.7877 61.1306 51.7426 61.6664 50.8171C62.2022 49.8871 62.9373 49.0767 63.8274 48.4391C65.302 47.3896 66.2984 45.8839 66.7412 44.2366C67.184 42.5893 67.0689 40.787 66.3161 39.1397C65.86 38.1433 65.6341 37.0716 65.6341 36C65.6341 34.9284 65.86 33.8567 66.3161 32.8603C67.0689 31.213 67.184 29.4151 66.7412 27.7634C66.3028 26.1116 65.302 24.6149 63.8274 23.5609C62.9329 22.9233 62.2022 22.1085 61.6664 21.1829C61.1306 20.253 60.794 19.2124 60.6877 18.123C60.515 16.3207 59.7135 14.7044 58.5046 13.4954C57.2957 12.2865 55.6793 11.485 53.877 11.3123C52.7877 11.206 51.7426 10.8695 50.8171 10.3336C49.8871 9.79781 49.0767 9.06271 48.4391 8.17262C47.3896 6.698 45.8884 5.70164 44.2366 5.25881C42.5893 4.81598 40.787 4.93111 39.1397 5.68392C38.1433 6.14004 37.0716 6.36588 36 6.36588C34.9284 6.36588 33.8567 6.14004 32.8603 5.68392Z" fill="white"/>
<path d="M15.244 42.2286H12.7511V32.5465H9.55859V30.4718H18.4365V32.5465H15.244V42.2286Z" fill="white"/>
<path d="M28.223 37.7172C28.223 38.4678 28.1211 39.1326 27.9174 39.7116C27.7191 40.2905 27.4269 40.7811 27.0409 41.1832C26.6603 41.5799 26.1992 41.8801 25.6578 42.0838C25.1217 42.2875 24.5159 42.3894 23.8404 42.3894C23.2078 42.3894 22.6261 42.2875 22.0954 42.0838C21.57 41.8801 21.1116 41.5799 20.7203 41.1832C20.3343 40.7811 20.034 40.2905 19.8196 39.7116C19.6105 39.1326 19.506 38.4678 19.506 37.7172C19.506 36.7201 19.6829 35.8757 20.0367 35.1842C20.3905 34.4926 20.8945 33.9672 21.5485 33.608C22.2026 33.2488 22.9826 33.0692 23.8886 33.0692C24.7303 33.0692 25.4755 33.2488 26.1242 33.608C26.7782 33.9672 27.2902 34.4926 27.6601 35.1842C28.0354 35.8757 28.223 36.7201 28.223 37.7172ZM22.0069 37.7172C22.0069 38.307 22.0712 38.8029 22.1999 39.2049C22.3286 39.607 22.5296 39.9099 22.803 40.1136C23.0764 40.3173 23.4329 40.4192 23.8725 40.4192C24.3068 40.4192 24.6579 40.3173 24.926 40.1136C25.1994 39.9099 25.3977 39.607 25.5211 39.2049C25.6497 38.8029 25.714 38.307 25.714 37.7172C25.714 37.1222 25.6497 36.629 25.5211 36.2376C25.3977 35.8409 25.1994 35.5434 24.926 35.345C24.6526 35.1466 24.2961 35.0475 23.8565 35.0475C23.2078 35.0475 22.736 35.2699 22.4411 35.7149C22.1516 36.1599 22.0069 36.8273 22.0069 37.7172Z" fill="white"/>
<path d="M35.2513 33.0692C36.2646 33.0692 37.0821 33.4633 37.704 34.2513C38.3312 35.0394 38.6448 36.1947 38.6448 37.7172C38.6448 38.7358 38.4974 39.5936 38.2026 40.2905C37.9077 40.9821 37.5003 41.5048 36.9802 41.8586C36.4602 42.2125 35.8625 42.3894 35.187 42.3894C34.7527 42.3894 34.3801 42.3358 34.0692 42.2286C33.7583 42.116 33.4929 41.9739 33.2731 41.8024C33.0533 41.6254 32.863 41.4378 32.7021 41.2394H32.5735C32.6164 41.4539 32.6485 41.6737 32.67 41.8988C32.6914 42.124 32.7021 42.3438 32.7021 42.5583V46.185H30.2495V33.2381H32.2438L32.5896 34.4041H32.7021C32.863 34.1629 33.0587 33.9404 33.2892 33.7367C33.5197 33.533 33.7958 33.3721 34.1175 33.2542C34.4445 33.1309 34.8224 33.0692 35.2513 33.0692ZM34.4632 35.0314C34.0344 35.0314 33.6939 35.1198 33.442 35.2967C33.19 35.4737 33.005 35.739 32.8871 36.0929C32.7745 36.4467 32.7129 36.8943 32.7021 37.4358V37.7012C32.7021 38.2802 32.7558 38.7707 32.863 39.1728C32.9756 39.5748 33.1605 39.8804 33.4178 40.0895C33.6805 40.2986 34.0397 40.4031 34.4954 40.4031C34.8707 40.4031 35.1789 40.2986 35.4202 40.0895C35.6614 39.8804 35.841 39.5748 35.959 39.1728C36.0823 38.7653 36.1439 38.2694 36.1439 37.6851C36.1439 36.8059 36.0072 36.1438 35.7338 35.6988C35.4604 35.2539 35.0369 35.0314 34.4632 35.0314Z" fill="white"/>
<path d="M50.4659 42.2286H47.9811V35.4254C47.9811 35.2378 47.9838 35.0072 47.9891 34.7338C47.9945 34.4551 48.0025 34.1709 48.0132 33.8814C48.024 33.5866 48.0347 33.3212 48.0454 33.0853C47.9864 33.155 47.8658 33.2756 47.6835 33.4472C47.5066 33.6134 47.3404 33.7635 47.185 33.8975L45.834 34.9831L44.6358 33.4874L48.4234 30.4718H50.4659V42.2286Z" fill="white"/>
<path d="M61.901 36.3502C61.901 37.2991 61.8259 38.1461 61.6758 38.8913C61.5311 39.6365 61.2952 40.2691 60.9682 40.7891C60.6465 41.3091 60.223 41.7059 59.6976 41.9793C59.1722 42.2527 58.5343 42.3894 57.7837 42.3894C56.8402 42.3894 56.0655 42.1508 55.4597 41.6737C54.8539 41.1912 54.4063 40.4996 54.1168 39.599C53.8273 38.693 53.6825 37.61 53.6825 36.3502C53.6825 35.0796 53.8139 33.994 54.0766 33.0934C54.3446 32.1873 54.7789 31.4931 55.3793 31.0106C55.9797 30.5281 56.7812 30.2869 57.7837 30.2869C58.7219 30.2869 59.4939 30.5281 60.0997 31.0106C60.7108 31.4877 61.1638 32.1793 61.4587 33.0853C61.7536 33.986 61.901 35.0743 61.901 36.3502ZM56.1513 36.3502C56.1513 37.2455 56.1995 37.9933 56.296 38.5938C56.3979 39.1888 56.5668 39.6365 56.8026 39.9367C57.0385 40.2369 57.3656 40.387 57.7837 40.387C58.1965 40.387 58.5209 40.2396 58.7567 39.9448C58.998 39.6445 59.1695 39.1969 59.2714 38.6018C59.3733 38.0014 59.4242 37.2508 59.4242 36.3502C59.4242 35.4549 59.3733 34.707 59.2714 34.1066C59.1695 33.5062 58.998 33.0558 58.7567 32.7556C58.5209 32.45 58.1965 32.2973 57.7837 32.2973C57.3656 32.2973 57.0385 32.45 56.8026 32.7556C56.5668 33.0558 56.3979 33.5062 56.296 34.1066C56.1995 34.707 56.1513 35.4549 56.1513 36.3502Z" fill="white"/>
</g>
<defs>
<clipPath id="clip0_1606_5157">
<rect width="72" height="72" fill="white"/>
</clipPath>
</defs>
</svg>
