<svg width="17" height="16" viewBox="0 0 17 16" fill="none" xmlns="http://www.w3.org/2000/svg">
<g clip-path="url(#clip0_2688_3256)">
<path d="M5.526 15.0002C11.564 15.0002 14.867 9.9972 14.867 5.6662C14.867 5.5262 14.867 5.3842 14.861 5.2442C15.5041 4.77869 16.0591 4.20236 16.5 3.5422C15.8993 3.80706 15.2628 3.98161 14.611 4.0602C15.2975 3.64984 15.8117 3.00417 16.058 2.2432C15.413 2.62533 14.707 2.89358 13.971 3.0362C13.4762 2.50923 12.8214 2.16012 12.1081 2.04296C11.3948 1.9258 10.6627 2.04713 10.0253 2.38814C9.38796 2.72916 8.88081 3.27083 8.58245 3.92927C8.28409 4.5877 8.21118 5.32614 8.375 6.03021C7.06974 5.96476 5.79282 5.62567 4.62704 5.03495C3.46127 4.44422 2.43268 3.61505 1.608 2.6012C1.18934 3.32429 1.06157 4.17961 1.25065 4.99347C1.43972 5.80734 1.93145 6.51873 2.626 6.9832C2.10554 6.96552 1.59652 6.82576 1.14 6.5752V6.6202C1.1409 7.37769 1.40331 8.11163 1.88287 8.69796C2.36244 9.2843 3.02975 9.68708 3.772 9.83821C3.49026 9.91582 3.19923 9.95451 2.907 9.95321C2.70098 9.95383 2.49538 9.93474 2.293 9.8962C2.50279 10.5483 2.91127 11.1184 3.46125 11.5267C4.01122 11.935 4.67513 12.1611 5.36 12.1732C4.19656 13.087 2.7594 13.5826 1.28 13.5802C1.01932 13.5813 0.758823 13.5663 0.5 13.5352C2.00151 14.4925 3.7453 15.0008 5.526 15.0002Z" fill="white"/>
</g>
<defs>
<clipPath id="clip0_2688_3256">
<rect width="16" height="16" fill="white" transform="translate(0.5)"/>
</clipPath>
</defs>
</svg>
