<svg width="18" height="19" viewBox="0 0 18 19" fill="none" xmlns="http://www.w3.org/2000/svg">
<path d="M9 0.75C10.6875 0.773438 12.1992 1.18359 13.5352 1.98047C14.8945 2.77734 15.9727 3.85547 16.7695 5.21484C17.5664 6.55078 17.9766 8.0625 18 9.75C17.9766 11.4375 17.5664 12.9492 16.7695 14.2852C15.9727 15.6445 14.8945 16.7227 13.5352 17.5195C12.1992 18.3164 10.6875 18.7266 9 18.75C7.3125 18.7266 5.80078 18.3164 4.46484 17.5195C3.10547 16.7227 2.02734 15.6445 1.23047 14.2852C0.433594 12.9492 0.0234375 11.4375 0 9.75C0.0234375 8.0625 0.433594 6.55078 1.23047 5.21484C2.02734 3.85547 3.10547 2.77734 4.46484 1.98047C5.80078 1.18359 7.3125 0.773438 9 0.75ZM9 17.0625C9.14062 17.0859 9.36328 16.9805 9.66797 16.7461C9.94922 16.5352 10.2891 16.0781 10.6875 15.375C10.9688 14.7422 11.2266 13.9922 11.4609 13.125H6.53906C6.75 13.9922 7.00781 14.7422 7.3125 15.375C7.6875 16.0781 8.02734 16.5352 8.33203 16.7461C8.63672 16.9805 8.85938 17.0859 9 17.0625ZM6.29297 11.4375H11.7422C11.7891 10.8984 11.8125 10.3359 11.8125 9.75C11.8125 9.16406 11.7891 8.60156 11.7422 8.0625H6.29297C6.22266 8.60156 6.1875 9.16406 6.1875 9.75C6.1875 10.3359 6.22266 10.8984 6.29297 11.4375ZM11.4609 6.375C11.2266 5.50781 10.9688 4.75781 10.6875 4.125C10.2891 3.42188 9.94922 2.96484 9.66797 2.75391C9.36328 2.51953 9.14062 2.41406 9 2.4375C8.85938 2.41406 8.63672 2.51953 8.33203 2.75391C8.02734 2.96484 7.6875 3.42188 7.3125 4.125C7.00781 4.75781 6.75 5.50781 6.53906 6.375H11.4609ZM13.4297 8.0625C13.4766 8.60156 13.5 9.16406 13.5 9.75C13.5 10.3359 13.4766 10.8984 13.4297 11.4375H16.1016C16.2422 10.8984 16.3125 10.3359 16.3125 9.75C16.3125 9.16406 16.2422 8.60156 16.1016 8.0625H13.4297ZM12.0234 3.10547C12.5156 4.01953 12.9023 5.10938 13.1836 6.375H15.5039C14.707 4.89844 13.5469 3.80859 12.0234 3.10547ZM5.97656 3.10547C4.45312 3.80859 3.29297 4.89844 2.49609 6.375H4.81641C5.09766 5.10938 5.48438 4.01953 5.97656 3.10547ZM1.6875 9.75C1.6875 10.3359 1.75781 10.8984 1.89844 11.4375H4.57031C4.52344 10.8984 4.5 10.3359 4.5 9.75C4.5 9.16406 4.52344 8.60156 4.57031 8.0625H1.89844C1.75781 8.60156 1.6875 9.16406 1.6875 9.75ZM15.5039 13.125H13.1836C12.9258 14.3906 12.5391 15.4805 12.0234 16.3945C13.5469 15.6914 14.707 14.6016 15.5039 13.125ZM4.81641 13.125H2.49609C3.29297 14.6016 4.45312 15.6914 5.97656 16.3945C5.48438 15.4805 5.09766 14.3906 4.81641 13.125Z" fill="#3C3950"/>
</svg>
